<svg width="81" height="115" viewBox="0 0 81 115" fill="none" xmlns="http://www.w3.org/2000/svg">
<g clip-path="url(#clip0)">
<path d="M43.412 0.0988235C60.741 1.32968 75.4536 13.6832 79.7456 30.5918C81.6362 38.0488 81.3763 46.3324 79.0288 53.3672C77.3801 58.3176 74.6203 62.8906 70.3911 67.6973C69.3966 68.8293 68.9038 69.3414 65.4899 72.9082C61.4041 77.1758 60.2841 78.4246 58.734 80.491C57.0494 82.7281 55.6337 85.3426 54.89 87.5797C54.227 89.5832 53.9134 91.2723 53.7969 93.3926C53.7611 94.0305 53.6983 94.6145 53.6446 94.6684C53.5191 94.8391 27.4809 94.8391 27.3554 94.6684C27.3017 94.6145 27.2389 94.0305 27.2031 93.3926C26.8984 87.6605 24.6315 82.8539 19.5332 77.1758C18.9776 76.5559 17.1677 74.6332 15.5101 72.9082C11.8543 69.1078 11.3884 68.5957 9.96371 66.9336C6.08395 62.3875 3.5303 58.048 1.97123 53.3762C-0.367378 46.3504 -0.62722 38.0129 1.25442 30.5918C3.42278 22.0207 8.34191 14.4019 15.295 8.83163C23.1889 2.51562 33.2602 -0.619926 43.412 0.0988235ZM40.9928 12.7129V15.4082L42.1128 15.4711C47.2828 15.7496 52.3812 17.7172 56.4491 21.0055C61.3862 24.9945 64.7642 31.059 65.5347 37.348C65.6064 37.932 65.696 38.8215 65.7318 39.3246L65.7856 40.25H68.4826H71.1707L71.108 38.9742C70.8212 33.1973 68.841 27.5101 65.4899 22.8023C60.6156 15.9742 53.1159 11.4281 44.8636 10.2871C43.7346 10.1344 41.9426 9.99062 41.3512 10.0086L40.9928 10.0176V12.7129Z" fill="#171774"/>
<path d="M51.9063 96.618C53.1159 96.9504 53.8955 98.1633 53.7163 99.4121C53.5729 100.355 52.7306 101.227 51.7629 101.434C51.4404 101.496 47.9459 101.523 40.2312 101.505L29.1654 101.479L28.6546 101.227C27.7407 100.778 27.2927 100.05 27.2927 99.0078C27.2927 97.9656 27.7407 97.2379 28.6546 96.7887L29.1654 96.5371L40.3208 96.5191C49.272 96.5102 51.5658 96.5281 51.9063 96.618Z" fill="#171774"/>
<path d="M51.6554 103.32C52.2378 103.437 52.4797 103.563 52.9009 103.949C53.4474 104.461 53.6983 105.018 53.6983 105.746C53.6983 106.752 53.2145 107.534 52.3453 107.965L51.8346 108.217H40.5H29.1654L28.6546 107.965C27.7855 107.534 27.3016 106.752 27.3016 105.746C27.3016 105 27.5615 104.443 28.1349 103.922C28.8966 103.23 28.0095 103.284 40.276 103.266C46.3331 103.257 51.4583 103.284 51.6554 103.32Z" fill="#171774"/>
<path d="M46.8617 110.05C47.4441 110.148 47.8653 110.355 48.2505 110.732C49.272 111.766 49.2003 113.464 48.0982 114.407C47.3993 115.009 47.5337 115 40.491 115C33.4394 115 33.6007 115.009 32.8838 114.389C32.3283 113.922 32.0416 113.293 32.0416 112.529C32.0326 111.487 32.5613 110.643 33.5021 110.211C33.9143 110.014 33.9591 110.014 40.1864 110.005C43.6361 109.996 46.6377 110.014 46.8617 110.05Z" fill="#171774"/>
</g>
<defs>
<clipPath id="clip0">
<rect width="81" height="115" fill="white" transform="matrix(-1 0 0 1 81 0)"/>
</clipPath>
</defs>
</svg>
