<svg width="156" height="166" viewBox="0 0 156 166" fill="none" xmlns="http://www.w3.org/2000/svg">
<path d="M112.934 3.95546C112.934 4.11108 112.739 4.14999 111.971 4.14999C111.373 4.14999 110.982 4.20187 110.956 4.29265C110.93 4.37045 110.605 4.47421 110.228 4.51312C109.772 4.55202 109.551 4.62984 109.551 4.74655C109.551 4.86327 109.408 4.92812 109.161 4.92812C108.953 4.92812 108.771 4.98 108.771 5.04483C108.771 5.10968 108.601 5.20045 108.38 5.25233C108.172 5.30421 107.99 5.38202 107.99 5.44687C107.99 5.5117 107.834 5.57655 107.639 5.60249C107.43 5.62843 107.287 5.70624 107.313 5.79703C107.326 5.90077 107.196 5.96562 106.949 5.96562C106.702 5.96562 106.559 6.03046 106.559 6.14719C106.559 6.25093 106.377 6.36765 106.168 6.41953C105.947 6.47141 105.804 6.56218 105.856 6.62703C105.895 6.69186 105.804 6.74374 105.661 6.74374C105.505 6.74374 105.388 6.83452 105.388 6.93828C105.388 7.04202 105.297 7.1328 105.193 7.1328C105.089 7.1328 104.997 7.22359 104.997 7.3403C104.997 7.44406 104.945 7.5089 104.893 7.46999C104.828 7.43109 104.685 7.52187 104.568 7.66452C104.451 7.7942 104.256 7.91093 104.152 7.91093C104.048 7.91093 103.957 8.00171 103.957 8.10545C103.957 8.20921 103.866 8.29999 103.761 8.29999C103.657 8.29999 103.566 8.39078 103.566 8.49452C103.566 8.59827 103.475 8.68906 103.371 8.68906C103.267 8.68906 103.176 8.77983 103.176 8.88359C103.176 8.98734 103.111 9.07811 103.033 9.07811C102.968 9.07811 102.942 9.12999 102.981 9.20781C103.02 9.27264 102.994 9.33749 102.929 9.33749C102.851 9.33749 102.786 9.42827 102.786 9.53203C102.786 9.63577 102.695 9.72655 102.59 9.72655C102.486 9.72655 102.395 9.81734 102.395 9.92108C102.395 10.0248 102.304 10.1156 102.2 10.1156C102.096 10.1156 102.005 10.2064 102.005 10.3102C102.005 10.4139 101.953 10.5047 101.888 10.5047C101.823 10.5047 101.732 10.6733 101.68 10.8937C101.628 11.1012 101.524 11.2569 101.446 11.2439C101.367 11.2309 101.276 11.3606 101.25 11.5422C101.224 11.7237 101.12 11.9183 101.016 11.9702C100.912 12.022 100.834 12.2166 100.834 12.3851C100.834 12.5537 100.782 12.7094 100.704 12.7353C100.639 12.7483 100.561 12.9298 100.548 13.1244C100.535 13.3319 100.444 13.4875 100.353 13.4875C100.249 13.4875 100.183 13.6431 100.183 13.8766C100.183 14.1359 100.118 14.2656 99.9883 14.2656C99.8322 14.2656 99.7931 14.4342 99.7931 14.9789C99.7931 15.5236 99.7541 15.6922 99.598 15.6922C99.4418 15.6922 99.4028 15.8867 99.4028 16.6648C99.4028 17.443 99.3638 17.6375 99.2076 17.6375C99.0385 17.6375 99.0125 17.9228 99.0125 19.4531C99.0125 20.9834 99.0385 21.2687 99.2076 21.2687C99.3638 21.2687 99.4028 21.4633 99.4028 22.2414C99.4028 23.0195 99.4418 23.2141 99.598 23.2141C99.7541 23.2141 99.7931 23.3826 99.7931 23.9273C99.7931 24.472 99.8322 24.6406 99.9883 24.6406C100.118 24.6406 100.183 24.7833 100.183 25.0945C100.183 25.4058 100.249 25.5484 100.379 25.5484C100.496 25.5484 100.574 25.6651 100.574 25.8727C100.574 26.0542 100.639 26.1969 100.704 26.1969C100.782 26.1969 100.834 26.3395 100.834 26.5211C100.834 26.6897 100.912 26.8842 101.016 26.9361C101.12 26.988 101.224 27.1825 101.25 27.3641C101.276 27.5456 101.367 27.6753 101.446 27.6623C101.524 27.6494 101.628 27.805 101.68 28.0125C101.732 28.233 101.823 28.4016 101.888 28.4016C101.953 28.4016 102.005 28.4923 102.005 28.5961C102.005 28.6998 102.096 28.7906 102.2 28.7906C102.304 28.7906 102.395 28.8814 102.395 28.9852C102.395 29.0889 102.46 29.1797 102.538 29.1797C102.616 29.1797 102.603 29.2705 102.499 29.4261C102.057 30.0486 83.2043 49.8 83.0482 49.8C82.9571 49.8 82.879 49.7092 82.879 49.6055C82.879 49.4369 82.6448 49.3461 82.3326 49.398C82.2675 49.398 82.2285 49.3201 82.2285 49.2164C82.2285 49.1126 82.1374 49.0219 82.0333 49.0219C81.9162 49.0219 81.7991 48.9311 81.7601 48.8273C81.7081 48.7236 81.5389 48.6328 81.3698 48.6328C81.1746 48.6328 81.0575 48.555 81.0575 48.4383C81.0575 48.3345 80.9794 48.2437 80.8754 48.2437C80.7713 48.2437 80.6672 48.153 80.6151 48.0492C80.5761 47.9455 80.394 47.8547 80.2118 47.8547C80.0036 47.8547 79.8865 47.7769 79.8865 47.6601C79.8865 47.5434 79.7694 47.4656 79.5743 47.4656C79.4051 47.4656 79.236 47.3748 79.184 47.2711C79.1449 47.1544 78.9498 47.0766 78.7156 47.0766C78.4814 47.0766 78.3382 47.0247 78.3903 46.9469C78.4423 46.8691 78.2992 46.8172 78.078 46.8172C77.8048 46.8172 77.6747 46.7523 77.6747 46.6227C77.6747 46.5059 77.5576 46.4281 77.3885 46.4281C76.9201 46.4281 76.5037 46.2855 76.5818 46.1558C76.6338 46.065 75.9182 45.9612 75.5669 46.0261C75.5019 46.0261 75.4628 45.9483 75.4628 45.8445C75.4628 45.6889 75.2937 45.65 74.6822 45.65C74.0707 45.65 73.9016 45.6111 73.9016 45.4555C73.9016 45.2998 73.6934 45.2609 72.7956 45.2609C71.8068 45.2609 71.4165 45.1312 71.8588 44.9626C71.9369 44.9237 70.831 44.8848 69.3868 44.8848C67.1229 44.8719 66.7456 44.8978 66.7456 45.0664C66.7456 45.1702 66.7066 45.248 66.6545 45.248C66.5895 45.235 66.095 45.235 65.5486 45.248C64.7419 45.2609 64.5337 45.2998 64.5337 45.4555C64.5337 45.6111 64.3646 45.65 63.7531 45.65C63.2327 45.65 62.9855 45.7019 63.0115 45.8056C63.0245 45.8834 62.8163 45.9742 62.5171 46.0131C62.2308 46.0391 61.9576 46.1169 61.9186 46.1947C61.8795 46.2595 61.5933 46.3503 61.294 46.3892C60.9688 46.4411 60.7606 46.5319 60.7606 46.6356C60.7606 46.7523 60.6175 46.8172 60.3573 46.8172C60.1361 46.8172 59.993 46.8691 60.045 46.9469C60.097 47.0247 59.9539 47.0766 59.7197 47.0766C59.4855 47.0766 59.2904 47.1544 59.2513 47.2711C59.1993 47.3748 59.0302 47.4656 58.861 47.4656C58.6658 47.4656 58.5488 47.5434 58.5488 47.6601C58.5488 47.7769 58.4317 47.8547 58.2235 47.8547C58.0413 47.8547 57.8592 47.9455 57.8201 48.0492C57.7681 48.153 57.664 48.2437 57.5599 48.2437C57.4558 48.2437 57.3778 48.3345 57.3778 48.4383C57.3778 48.555 57.2607 48.6328 57.0655 48.6328C56.8964 48.6328 56.7272 48.7236 56.6752 48.8273C56.6362 48.9311 56.5061 49.0219 56.3759 49.0089C56.1287 49.0089 49.1029 41.085 49.1289 40.8516C49.1419 40.7867 49.1549 40.6311 49.1549 40.5144C49.1679 40.4106 49.233 40.3458 49.298 40.3847C49.3631 40.4366 49.4542 40.2939 49.5062 40.0864C49.5452 39.8789 49.6754 39.6714 49.7794 39.6325C49.8835 39.5936 49.9616 39.3991 49.9746 39.2045C49.9746 38.8933 49.9876 38.8803 50.0787 39.1008C50.1698 39.3212 50.1958 39.3083 50.2739 38.9322C50.3259 38.7117 50.43 38.5172 50.495 38.5172C50.5601 38.5172 50.6121 38.3356 50.6121 38.1281C50.6121 37.8428 50.6772 37.7391 50.8463 37.7261C51.0285 37.7261 51.0285 37.7001 50.8073 37.6094C50.5991 37.5186 50.5861 37.4926 50.7683 37.4926C50.9114 37.4797 51.0025 37.35 51.0285 37.0517C51.0545 36.8053 51.1326 36.6497 51.2367 36.6627C51.3538 36.6886 51.3928 36.4551 51.3928 35.7937C51.3928 35.0934 51.4448 34.86 51.588 34.8081C51.7441 34.7433 51.7831 34.432 51.7831 33.1351C51.7831 31.8383 51.7441 31.527 51.588 31.4622C51.4448 31.4103 51.3928 31.1639 51.3928 30.4506C51.3928 29.88 51.3407 29.5687 51.2757 29.6725C51.1846 29.8152 51.1456 29.8022 51.0805 29.6336C51.0415 29.5169 51.0025 29.2964 51.0025 29.1537C51.0025 29.024 50.9114 28.8166 50.8073 28.7128C50.7032 28.5961 50.6121 28.3108 50.6121 28.0644C50.6121 27.818 50.5601 27.6364 50.495 27.6753C50.43 27.7272 50.3389 27.5845 50.2869 27.3641C50.2348 27.1566 50.1437 26.975 50.0787 26.975C50.0136 26.975 49.9616 26.8842 49.9616 26.7805C49.9616 26.6767 49.8835 26.5859 49.7794 26.5859C49.6754 26.5859 49.5583 26.4044 49.5062 26.1969C49.4542 25.9764 49.3631 25.8078 49.298 25.8078C49.233 25.8078 49.1809 25.717 49.1809 25.6133C49.1809 25.5095 49.0899 25.4187 48.9858 25.4187C48.8817 25.4187 48.7906 25.328 48.7906 25.2242C48.7906 25.1205 48.6995 25.0297 48.5955 25.0297C48.4914 25.0297 48.4003 24.9389 48.4003 24.8351C48.4003 24.7314 48.3092 24.6406 48.2051 24.6406C48.101 24.6406 48.01 24.5498 48.01 24.4331C48.01 24.3294 47.9449 24.2775 47.8799 24.3164C47.8018 24.3553 47.7107 24.3034 47.6717 24.1997C47.6327 24.083 47.5156 23.9922 47.4115 23.9922C47.3074 23.9922 47.2293 23.9273 47.2293 23.8625C47.2293 23.642 46.7219 23.2141 46.4487 23.2141C46.3055 23.2141 46.1884 23.1233 46.1884 23.0195C46.1884 22.9158 46.0974 22.825 45.9933 22.825C45.8892 22.825 45.7981 22.7342 45.7981 22.6305C45.7981 22.5008 45.668 22.4359 45.4078 22.4359C45.1996 22.4359 45.0175 22.384 45.0175 22.3062C45.0175 22.2414 44.7833 22.1376 44.497 22.0987C44.1848 22.0469 43.9766 21.9431 43.9766 21.8394C43.9766 21.7097 43.7945 21.6578 43.3651 21.6578C42.9748 21.6578 42.8056 21.6189 42.9097 21.5411C43.1699 21.3725 42.7926 21.2687 41.9469 21.2687C41.5566 21.2687 41.2443 21.2039 41.2443 21.1391C41.2443 21.0612 40.5938 21.0094 39.5399 21.0094C38.447 21.0094 37.8745 21.0612 37.9266 21.1391C37.9786 21.2169 37.7444 21.2687 37.3151 21.2687C36.9377 21.2687 36.4824 21.3076 36.3132 21.3595C36.014 21.4373 36.014 21.4503 36.2482 21.5411C36.4173 21.6059 36.3002 21.6448 35.8839 21.6448C35.4155 21.6578 35.2593 21.7097 35.2593 21.8523C35.2593 22.0209 34.7649 22.1376 34.3226 22.0598C34.2575 22.0598 34.2185 22.1376 34.2185 22.2414C34.2185 22.41 33.8932 22.5137 33.5419 22.4489C33.4769 22.4489 33.4378 22.5267 33.4378 22.6305C33.4378 22.7342 33.3467 22.825 33.2427 22.825C33.1386 22.825 33.0475 22.9158 33.0475 23.0195C33.0475 23.1492 32.9174 23.2141 32.6572 23.2141C32.397 23.2141 32.2668 23.2789 32.2668 23.4086C32.2668 23.5123 32.1758 23.6031 32.0717 23.6031C31.9676 23.6031 31.8765 23.6939 31.8765 23.7977C31.8765 23.9014 31.7854 23.9922 31.6814 23.9922C31.5773 23.9922 31.4862 24.083 31.4862 24.1867C31.4862 24.2905 31.4211 24.3812 31.3561 24.3812C31.1739 24.3812 30.6145 24.9 30.7836 24.913C30.8487 24.913 30.7706 24.9648 30.6015 25.0426C30.4323 25.1075 30.3412 25.2112 30.3803 25.289C30.4193 25.3539 30.3673 25.4187 30.2632 25.4187C30.1461 25.4187 30.055 25.5095 30.055 25.6133C30.055 25.717 29.9639 25.8078 29.8598 25.8078C29.7297 25.8078 29.6647 25.9375 29.6647 26.1969C29.6647 26.4562 29.5996 26.5859 29.4695 26.5859C29.3654 26.5859 29.2744 26.6508 29.2744 26.7286C29.2744 26.8064 29.1833 26.9491 29.0792 27.0528C28.9751 27.1695 28.884 27.3641 28.884 27.5067C28.884 27.6364 28.819 27.7401 28.7279 27.7142C28.5588 27.6883 28.5327 27.7661 28.5067 28.4016C28.4937 28.648 28.4286 28.7906 28.2985 28.7906C28.1554 28.7906 28.1034 28.9333 28.1034 29.3353C28.1034 29.7503 28.0643 29.8411 27.9733 29.6984C27.8822 29.5558 27.8432 29.6725 27.8302 30.1134C27.8171 30.4636 27.7911 30.7878 27.7781 30.8656C27.7651 30.9305 27.7391 31.112 27.7261 31.2677C27.7261 31.4103 27.661 31.4881 27.5829 31.4492C27.5049 31.3973 27.4528 31.9939 27.4528 33.1351C27.4528 34.1986 27.5049 34.873 27.5699 34.8211C27.648 34.7822 27.7391 35.1453 27.7911 35.6641C27.8302 36.1569 27.9342 36.5719 27.9863 36.5719C28.0513 36.5719 28.1034 36.7534 28.1034 36.9609C28.1034 37.1944 28.1814 37.3889 28.2985 37.4278C28.4026 37.4797 28.4937 37.6612 28.4937 37.8687C28.4937 38.0762 28.5848 38.3226 28.6889 38.4264C28.7799 38.5301 28.91 38.7636 28.9621 38.9581C29.0011 39.1397 29.0922 39.2953 29.1573 39.2953C29.2223 39.2953 29.2744 39.3861 29.2744 39.4898C29.2744 39.5936 29.3654 39.6844 29.4695 39.6844C29.5866 39.6844 29.6647 39.8011 29.6647 40.0086C29.6647 40.2161 29.7427 40.3328 29.8598 40.3328C29.9639 40.3328 30.055 40.4106 30.055 40.5144C30.055 40.6181 30.1461 40.7348 30.2632 40.7737C30.3673 40.8126 30.4323 40.9034 30.3933 40.9683C30.3543 41.0331 30.4323 41.1109 30.5754 41.1498C30.7186 41.1887 30.8226 41.2925 30.8096 41.3962C30.7836 41.487 30.8487 41.5519 30.9397 41.5389C31.0178 41.513 31.0959 41.5908 31.0959 41.6945C31.0959 41.7983 31.1869 41.8891 31.291 41.8891C31.3951 41.8891 31.4862 41.9798 31.4862 42.0836C31.4862 42.1873 31.5773 42.2781 31.6814 42.2781C31.7854 42.2781 31.8765 42.3689 31.8765 42.4726C31.8765 42.5764 31.9676 42.6672 32.0717 42.6672C32.1758 42.6672 32.2668 42.7191 32.2668 42.7839C32.2668 42.8487 32.436 42.9395 32.6572 42.9914C32.8653 43.0433 33.0475 43.16 33.0475 43.2637C33.0475 43.3675 33.1386 43.4453 33.2427 43.4453C33.3467 43.4453 33.4378 43.4972 33.4378 43.575C33.4378 43.6398 33.5809 43.7047 33.7631 43.7047C33.9452 43.7047 34.1274 43.7825 34.1664 43.8862C34.2055 43.977 34.4657 44.0937 34.7519 44.1456C35.0251 44.1845 35.2593 44.2883 35.2593 44.3531C35.2593 44.4309 35.3895 44.4828 35.5586 44.4828C35.7147 44.4828 35.9879 44.5217 36.1571 44.5736C36.4563 44.6514 36.4563 44.6644 36.2221 44.7551C36.079 44.82 36.3783 44.8589 36.9768 44.8589C37.8225 44.8719 37.9656 44.8978 37.9136 45.0664C37.8485 45.235 38.0827 45.2609 39.5399 45.2609C40.9711 45.2609 41.2443 45.235 41.2443 45.0664C41.2443 44.9108 41.4395 44.8719 42.1941 44.8719C42.7536 44.8719 43.0658 44.82 42.9618 44.7551C42.7406 44.6255 43.1699 44.4828 43.8465 44.4828C44.1588 44.4828 44.2498 44.4439 44.1197 44.3661C43.9766 44.2753 44.0026 44.2364 44.2368 44.1586C44.393 44.1067 44.5751 44.1197 44.6271 44.1845C44.6922 44.2364 46.4357 46.1817 48.5044 48.5031C51.1846 51.4989 52.2515 52.7698 52.1995 52.9384C52.1734 53.0681 52.0563 53.1719 51.9653 53.1719C51.8612 53.1719 51.7831 53.3016 51.7831 53.4961C51.7831 53.7036 51.705 53.8203 51.588 53.8203C51.4839 53.8203 51.3928 53.9111 51.3928 54.0148C51.3928 54.1186 51.3017 54.2094 51.1976 54.2094C51.0675 54.2094 51.0025 54.352 50.9895 54.6244C50.9895 54.9745 50.9634 55.0005 50.8854 54.793C50.7943 54.5725 50.7683 54.5855 50.6902 54.9486C50.6382 55.182 50.5471 55.3766 50.482 55.3766C50.417 55.3766 50.3389 55.5452 50.2869 55.7656C50.2348 55.9731 50.1437 56.1287 50.0657 56.1158C49.9876 56.1028 49.9096 56.2325 49.8835 56.4141C49.8445 56.5827 49.7664 56.7642 49.7144 56.8031C49.6493 56.842 49.5452 57.0366 49.5062 57.2311C49.4542 57.4256 49.3631 57.5812 49.298 57.5812C49.233 57.5812 49.1809 57.7498 49.1809 57.9703C49.1809 58.2297 49.1159 58.3594 48.9858 58.3594C48.8166 58.3594 48.6995 58.8522 48.7776 59.2931C48.7776 59.358 48.6995 59.3969 48.5955 59.3969C48.4653 59.3969 48.4003 59.5395 48.4003 59.8508C48.4003 60.1231 48.3352 60.3047 48.2442 60.3047C48.1271 60.3047 48.1401 60.3566 48.2702 60.4344C48.4393 60.5381 48.4263 60.5641 48.2442 60.5641C48.049 60.5641 48.01 60.6937 48.01 61.3033C48.01 61.7702 47.9579 61.9906 47.8929 61.8869C47.7237 61.6145 47.6196 62.1462 47.6066 63.3523C47.6066 63.9748 47.5676 64.2861 47.5025 64.1434C47.4115 63.91 47.3985 63.91 47.3204 64.2083C47.2163 64.5973 47.2033 68.5658 47.3074 68.9548C47.3594 69.1234 47.4375 69.2142 47.5025 69.1753C47.5676 69.1364 47.6196 69.4995 47.6196 69.9923C47.6196 70.4722 47.6587 71.0169 47.7107 71.1855C47.7888 71.4837 47.8018 71.4837 47.8929 71.2503C47.9579 71.0947 47.997 71.2892 47.997 71.782V72.5602L40.5417 77.3197C36.4433 79.9394 32.9955 82.1181 32.8784 82.17C32.7222 82.2219 32.6572 82.183 32.6572 82.0403C32.6572 81.9236 32.5661 81.8328 32.462 81.8328C32.3579 81.8328 32.2668 81.768 32.2668 81.6902C32.2668 81.5086 31.6163 80.8731 31.3171 80.7564C31.1869 80.7045 31.1219 80.6137 31.1609 80.5359C31.2 80.4711 31.1479 80.4062 31.0438 80.4062C30.9267 80.4062 30.8357 80.3155 30.8357 80.2117C30.8357 80.108 30.7576 80.0172 30.6535 80.0172C30.5494 80.0172 30.4453 79.9264 30.3933 79.8227C30.3543 79.7189 30.1721 79.6281 29.99 79.6281C29.7818 79.6281 29.6647 79.5503 29.6647 79.4336C29.6647 79.3298 29.5736 79.2391 29.4695 79.2391C29.3654 79.2391 29.2744 79.1483 29.2744 79.0445C29.2744 78.9148 29.1442 78.85 28.871 78.85C28.6498 78.85 28.5067 78.7981 28.5588 78.7203C28.5978 78.6425 28.5197 78.5906 28.3766 78.5906C28.2335 78.5906 28.0383 78.4998 27.9212 78.3961C27.8171 78.2923 27.5829 78.1886 27.4008 78.1756C27.2186 78.1627 27.0625 78.0719 27.0625 77.9811C27.0625 77.8773 26.9064 77.8125 26.6722 77.8125C26.412 77.8125 26.2819 77.7477 26.2819 77.618C26.2819 77.4883 26.0867 77.4234 25.5402 77.3975C25.0198 77.3716 24.7986 77.3067 24.8246 77.19C24.8377 77.0733 24.5905 77.0344 23.8749 77.0344C23.0942 77.0344 22.899 76.9955 22.899 76.8398C22.899 76.6712 22.5998 76.6453 20.9995 76.6453C19.3601 76.6453 19.1129 76.6712 19.1779 76.8398C19.23 77.0084 19.0739 77.0344 18.2151 77.0344C17.3824 77.0344 17.1743 77.0733 17.1743 77.2289C17.1743 77.3716 17.0181 77.4234 16.5367 77.4234C16.0944 77.4234 15.8732 77.4753 15.8211 77.618C15.7821 77.7347 15.5869 77.8125 15.3528 77.8125C15.1316 77.8125 14.9754 77.8773 14.9884 77.9552C15.0145 78.033 14.8583 78.1237 14.6502 78.1627C14.442 78.1886 14.1948 78.3053 14.0907 78.4091C13.9866 78.4998 13.8175 78.5906 13.7134 78.5906C13.6093 78.5906 13.5312 78.6425 13.5312 78.7203C13.5312 78.7852 13.3881 78.85 13.206 78.85C13.0238 78.85 12.8417 78.9408 12.8026 79.0445C12.7506 79.1483 12.6465 79.2391 12.5424 79.2391C12.4383 79.2391 12.3603 79.3298 12.3603 79.4336C12.3603 79.5503 12.2432 79.6281 12.035 79.6281C11.8268 79.6281 11.7097 79.7059 11.7097 79.8227C11.7097 79.9264 11.6186 80.0172 11.5146 80.0172C11.4105 80.0172 11.3194 80.108 11.3194 80.2117C11.3194 80.3155 11.2023 80.4062 11.0592 80.4062C10.9161 80.4062 10.799 80.4711 10.799 80.5489C10.799 80.7305 10.4737 81.0547 10.2915 81.0547C10.2135 81.0547 10.1484 81.1325 10.1484 81.2362C10.1484 81.34 9.99228 81.4567 9.78411 81.5086C9.58895 81.5605 9.49787 81.6253 9.58895 81.6642C9.75809 81.7291 9.32873 82.2219 9.10755 82.2219C9.02948 82.2219 8.97744 82.3127 8.97744 82.4164C8.97744 82.5201 8.88636 82.6109 8.78227 82.6109C8.67819 82.6109 8.58711 82.7017 8.58711 82.8055C8.58711 82.9092 8.53507 83 8.47001 83C8.40496 83 8.31388 83.1556 8.26184 83.3502C8.22281 83.5447 8.04066 83.83 7.85851 83.9986C7.68936 84.1542 7.54624 84.4266 7.54624 84.6211C7.54624 84.8286 7.46818 84.9453 7.35108 84.9453C7.23398 84.9453 7.15592 85.062 7.15592 85.2695C7.15592 85.477 7.07785 85.5938 6.96076 85.5938C6.83065 85.5938 6.76559 85.7234 6.76559 85.9828C6.76559 86.2422 6.70054 86.3719 6.57043 86.3719C6.42731 86.3719 6.37527 86.5275 6.37527 86.9555C6.37527 87.3575 6.32323 87.5261 6.21914 87.5131C6.10204 87.4872 6.02398 87.6947 5.98494 88.0967C5.94591 88.4339 5.86785 88.7062 5.78978 88.7062C5.63365 88.7062 5.63365 88.7062 5.60763 89.9642C5.58161 90.6645 5.54257 90.898 5.46451 90.7164C5.39946 90.5608 5.34741 91.287 5.34741 92.5969C5.34741 93.79 5.39946 94.62 5.4515 94.4773C5.52956 94.3087 5.58161 94.5941 5.60763 95.3073C5.64666 96.0206 5.72473 96.4227 5.82881 96.4616C5.91989 96.4875 5.98494 96.7469 5.98494 97.0841C5.98494 97.4991 6.03699 97.6547 6.18011 97.6547C6.32323 97.6547 6.37527 97.7973 6.37527 98.1734C6.37527 98.5495 6.42731 98.6922 6.57043 98.6922C6.70054 98.6922 6.76559 98.8219 6.76559 99.0812C6.76559 99.3406 6.83065 99.4703 6.96076 99.4703C7.09087 99.4703 7.15592 99.6 7.15592 99.8594C7.15592 100.119 7.22097 100.248 7.35108 100.248C7.48119 100.248 7.54624 100.378 7.54624 100.637C7.54624 100.897 7.6113 101.027 7.74141 101.027C7.84549 101.027 7.93657 101.117 7.93657 101.221C7.93657 101.325 7.98861 101.416 8.06668 101.416C8.13173 101.416 8.22281 101.558 8.27485 101.74C8.31388 101.921 8.40496 102.064 8.47001 102.064C8.53507 102.064 8.58711 102.155 8.58711 102.259C8.58711 102.362 8.67819 102.453 8.78227 102.453C8.88636 102.453 8.97744 102.544 8.97744 102.648C8.97744 102.751 9.06851 102.842 9.1726 102.842C9.27669 102.842 9.36776 102.933 9.36776 103.037C9.36776 103.14 9.45884 103.231 9.56293 103.231C9.66701 103.231 9.75809 103.322 9.75809 103.426C9.75809 103.53 9.84916 103.62 9.95325 103.62C10.0573 103.62 10.1484 103.711 10.1484 103.815C10.1484 103.919 10.2395 104.009 10.3566 104.009C10.4607 104.009 10.5257 104.061 10.4867 104.113C10.4216 104.23 10.9161 104.71 11.1242 104.723C11.2023 104.736 11.2413 104.8 11.2153 104.891C11.2023 104.982 11.2804 105.047 11.3844 105.047C11.5015 105.047 11.6186 105.138 11.6577 105.241C11.7097 105.345 11.8138 105.436 11.9179 105.436C12.022 105.436 12.1 105.54 12.1131 105.656C12.1131 105.851 12.1391 105.851 12.2301 105.63C12.3212 105.41 12.3472 105.41 12.3472 105.592C12.3603 105.721 12.4513 105.825 12.5554 105.825C12.6595 105.825 12.7506 105.916 12.7506 106.02C12.7506 106.149 12.8807 106.214 13.1409 106.214C13.4011 106.214 13.5312 106.279 13.5312 106.409C13.5312 106.525 13.6483 106.603 13.8435 106.603C14.0126 106.603 14.1818 106.694 14.2338 106.798C14.2729 106.914 14.468 106.992 14.7022 106.992C14.9494 106.992 15.0795 107.057 15.0665 107.148C15.0405 107.252 15.1966 107.329 15.4568 107.355C15.678 107.381 15.8732 107.446 15.8732 107.524C15.8732 107.589 16.0683 107.641 16.3025 107.641C16.875 107.641 17.3174 107.77 17.2263 107.913C17.1873 107.978 17.4475 108.03 17.7988 108.03C18.6185 108.03 19.269 108.159 19.1779 108.302C19.1389 108.367 19.9456 108.419 20.9995 108.419C22.3136 108.419 22.886 108.38 22.9251 108.263C22.9511 108.185 23.3935 108.082 23.9529 108.03C24.4864 107.978 24.8637 107.926 24.7856 107.913C24.5124 107.848 25.202 107.654 25.7614 107.641C26.2168 107.628 26.2819 107.602 26.0867 107.511C25.8915 107.42 25.9566 107.394 26.3859 107.394C26.7502 107.381 26.9714 107.316 27.0105 107.187C27.0625 107.07 27.2577 106.992 27.4658 106.992C27.7131 106.992 27.8432 106.927 27.8432 106.811C27.8432 106.694 27.9993 106.603 28.2075 106.577C28.4026 106.551 28.5457 106.473 28.5197 106.383C28.5067 106.279 28.6368 106.214 28.884 106.214C29.1442 106.214 29.2744 106.149 29.2744 106.02C29.2744 105.916 29.3654 105.825 29.4695 105.825C29.5736 105.825 29.6647 105.734 29.6647 105.63C29.6647 105.527 29.7037 105.449 29.7688 105.449C30.1201 105.514 30.4453 105.41 30.4453 105.241C30.4453 105.138 30.5364 105.047 30.6405 105.047C30.7446 105.047 30.8357 104.956 30.8357 104.852C30.8357 104.749 30.9137 104.671 31.0048 104.684C31.0829 104.71 31.1479 104.645 31.1219 104.554C31.1089 104.476 31.1739 104.398 31.265 104.398C31.4472 104.398 31.9546 103.867 31.9025 103.711C31.8895 103.659 31.9676 103.62 32.0717 103.62C32.1758 103.62 32.2668 103.53 32.2668 103.426C32.2668 103.322 32.3579 103.231 32.462 103.231C32.5661 103.231 32.6572 103.14 32.6572 103.037C32.6572 102.933 32.7482 102.842 32.8523 102.842C32.9564 102.842 33.0475 102.751 33.0475 102.648C33.0475 102.544 33.1386 102.453 33.2427 102.453C33.3467 102.453 33.4378 102.362 33.4378 102.259C33.4378 102.155 33.5159 102.064 33.607 102.064C33.698 102.064 33.7761 101.934 33.7891 101.779C33.8021 101.623 33.9062 101.442 34.0233 101.39C34.1274 101.325 34.2185 101.182 34.2185 101.078C34.2185 100.975 34.2835 100.923 34.3486 100.962C34.4266 101.014 34.4787 100.871 34.4787 100.65C34.4787 100.378 34.5437 100.248 34.6739 100.248C34.843 100.248 34.9341 100.015 34.882 99.6908C34.869 99.6389 34.9601 99.5611 35.0642 99.5222C35.1683 99.4703 35.2593 99.3017 35.2593 99.1331C35.2593 98.9516 35.3504 98.783 35.4545 98.7441C35.5846 98.6922 35.6497 98.4847 35.6497 98.1605C35.6497 97.7973 35.7017 97.6547 35.8448 97.6547C35.9879 97.6547 36.04 97.4991 36.04 97.0711C36.04 96.6431 36.092 96.4875 36.2352 96.4875C36.3913 96.4875 36.4303 96.267 36.4433 95.3462C36.4433 94.6589 36.4824 94.3217 36.5474 94.4773C36.7166 94.8794 36.8597 92.6358 36.7426 91.4686C36.6775 90.7683 36.6255 90.5348 36.5474 90.7164C36.4954 90.872 36.4433 90.4959 36.4433 89.7697C36.4303 88.797 36.3913 88.5766 36.2352 88.5766C36.092 88.5766 36.04 88.4209 36.04 87.98C36.04 87.5002 36.001 87.3964 35.8448 87.4612C35.6887 87.5131 35.6497 87.4223 35.6497 87.0333V86.5405L42.8317 82.0144C46.7739 79.5244 50.0917 77.4753 50.1828 77.4494C50.2739 77.4234 50.3519 77.5012 50.3519 77.618C50.3519 77.7347 50.404 77.7866 50.482 77.7477C50.5601 77.7087 50.6121 77.7866 50.6121 77.9292C50.6121 78.0978 50.7032 78.2016 50.8463 78.2016C51.0285 78.2016 51.0415 78.2275 50.8724 78.3312C50.7422 78.4091 50.7292 78.4609 50.8463 78.4609C50.9244 78.4609 51.0025 78.5517 51.0025 78.6555C51.0025 78.7592 51.0935 78.85 51.1976 78.85C51.3017 78.85 51.3928 78.9408 51.3928 79.0445C51.3928 79.1612 51.4839 79.278 51.588 79.3169C51.692 79.3687 51.7831 79.5373 51.7831 79.7059C51.7831 79.9005 51.8612 80.0172 51.9783 80.0172C52.0824 80.0172 52.1734 80.108 52.1734 80.2117C52.1734 80.3155 52.2645 80.4062 52.3686 80.4062C52.4727 80.4062 52.5638 80.4581 52.5638 80.5359C52.5638 80.7305 52.9931 81.1844 53.1883 81.1844C53.2794 81.1844 53.3184 81.2492 53.2794 81.3141C53.2403 81.3919 53.3314 81.4956 53.5005 81.5605C53.6697 81.6383 53.7477 81.6902 53.6827 81.6902C53.5136 81.7031 54.073 82.2219 54.2552 82.2219C54.3202 82.2219 54.3853 82.3127 54.3853 82.4164C54.3853 82.5201 54.4764 82.6109 54.5804 82.6109C54.6845 82.6109 54.7756 82.7017 54.7756 82.8055C54.7756 82.9092 54.8667 83 54.9708 83C55.0749 83 55.1659 83.0908 55.1659 83.1945C55.1659 83.2983 55.257 83.3891 55.3611 83.3891C55.4652 83.3891 55.5563 83.4798 55.5563 83.5836C55.5563 83.7003 55.6734 83.7781 55.8685 83.7781C56.0377 83.7781 56.2068 83.8689 56.2588 83.9727C56.2979 84.0764 56.415 84.1672 56.5321 84.1672C56.6362 84.1672 56.7272 84.258 56.7272 84.3617C56.7272 84.4784 56.8443 84.5562 57.0525 84.5562C57.2607 84.5562 57.3778 84.6341 57.3778 84.7508C57.3778 84.8545 57.4949 84.9453 57.651 84.9453C57.7941 84.9453 57.8722 84.9972 57.8332 85.075C57.7811 85.1528 57.9242 85.2047 58.1454 85.2047C58.4186 85.2047 58.5488 85.2695 58.5488 85.3992C58.5488 85.5678 58.7829 85.6586 59.1082 85.6067C59.1603 85.6067 59.1993 85.6845 59.1993 85.7883C59.1993 85.9569 59.5246 86.0606 59.8889 85.9958C59.9409 85.9958 59.9799 86.0736 59.9799 86.1773C59.9799 86.307 60.1101 86.3719 60.3703 86.3719C60.6305 86.3719 60.7606 86.4367 60.7606 86.5664C60.7606 86.7091 60.9167 86.7609 61.3461 86.7609C61.7754 86.7609 61.9316 86.8128 61.9316 86.9555C61.9316 87.0981 62.0877 87.15 62.5171 87.15C62.9204 87.15 63.0895 87.2019 63.0765 87.3056C63.0505 87.4223 63.2717 87.4872 63.7921 87.5131C64.2995 87.5391 64.5337 87.6039 64.5337 87.7206C64.5337 87.8503 64.82 87.9022 65.6006 87.9152C66.2642 87.9281 66.7066 88.0059 66.7716 88.0967C66.8367 88.2005 67.4612 88.2653 68.7232 88.2912C70.7659 88.3431 72.106 88.2394 71.8068 88.0578C71.6897 87.98 72.067 87.9281 72.7956 87.9022C73.6413 87.8762 73.9536 87.8244 73.9406 87.6947C73.9146 87.5909 74.1097 87.5391 74.6171 87.5391C75.1376 87.5391 75.3588 87.4872 75.4108 87.3445C75.4628 87.2148 75.671 87.15 75.9963 87.15C76.3606 87.15 76.5037 87.0981 76.5037 86.9555C76.5037 86.8128 76.6598 86.7609 77.0892 86.7609C77.5186 86.7609 77.6747 86.7091 77.6747 86.5664C77.6747 86.4367 77.8048 86.3719 78.065 86.3719C78.3252 86.3719 78.4553 86.307 78.4553 86.1773C78.4553 86.0736 78.4944 85.9958 78.5594 85.9958C78.9107 86.0606 79.236 85.9698 79.1579 85.8272C78.7676 85.2047 79.7694 86.3719 82.1764 89.3287C83.7117 91.2352 85.0779 92.9081 85.195 93.0508C85.7024 93.6603 91.193 100.417 92.1037 101.545C92.6502 102.22 93.1706 102.855 93.2617 102.959C93.3658 103.063 93.678 103.465 93.9773 103.867C94.2765 104.256 94.6929 104.762 94.888 104.969C95.3564 105.475 95.5516 105.825 95.3694 105.825C95.3044 105.825 95.2393 105.929 95.2263 106.045C95.2263 106.253 95.2133 106.24 95.1222 106.02C95.0312 105.799 95.0051 105.812 94.9271 106.149C94.849 106.435 94.81 106.486 94.7059 106.331C94.6148 106.175 94.5888 106.188 94.5888 106.37C94.5888 106.499 94.4977 106.603 94.3936 106.603C94.2895 106.603 94.1985 106.694 94.1985 106.798C94.1985 106.901 94.0944 106.992 93.9773 107.005C93.8472 107.005 93.8081 107.044 93.8992 107.083C94.0033 107.122 93.9513 107.239 93.7431 107.433C93.5609 107.602 93.4178 107.796 93.4178 107.887C93.4178 107.965 93.3267 108.03 93.2226 108.03C93.1186 108.03 93.0275 108.12 93.0275 108.224C93.0275 108.328 92.9364 108.419 92.8323 108.419C92.7282 108.419 92.6372 108.51 92.6372 108.613C92.6372 108.717 92.5461 108.808 92.442 108.808C92.3379 108.808 92.2468 108.899 92.2468 109.002C92.2468 109.106 92.1948 109.197 92.1297 109.197C92.0647 109.197 91.9736 109.352 91.9216 109.547C91.8695 109.793 91.8045 109.845 91.7394 109.729C91.6613 109.612 91.6093 109.664 91.5443 109.897C91.4402 110.299 91.0759 110.766 90.9197 110.675C90.8677 110.636 90.8156 110.792 90.8156 111C90.8156 111.272 90.7506 111.402 90.6205 111.402C90.5164 111.402 90.4253 111.492 90.4253 111.596C90.4253 111.7 90.3342 111.791 90.2302 111.791C90.1 111.791 90.035 111.92 90.035 112.18C90.035 112.439 89.9699 112.569 89.8398 112.569C89.7227 112.569 89.6447 112.685 89.6447 112.893C89.6447 113.1 89.5666 113.217 89.4495 113.217C89.3454 113.217 89.2543 113.308 89.2543 113.425C89.2543 113.528 89.1633 113.71 89.0592 113.814C88.9551 113.93 88.864 114.125 88.864 114.268C88.864 114.41 88.812 114.501 88.7469 114.462C88.6819 114.41 88.5908 114.553 88.5387 114.773C88.4867 114.981 88.3956 115.162 88.3306 115.162C88.2655 115.162 88.1744 115.396 88.1354 115.681C88.0834 115.967 88.0053 116.2 87.9402 116.2C87.8882 116.2 87.8232 116.395 87.7971 116.615C87.7711 116.874 87.693 117.03 87.602 117.004C87.4849 116.991 87.4328 117.134 87.4328 117.432C87.4328 117.743 87.3678 117.886 87.2377 117.886C87.0945 117.886 87.0425 118.029 87.0425 118.405C87.0425 118.781 86.9905 118.923 86.8473 118.923C86.7432 118.923 86.6652 118.962 86.6652 119.014C86.6782 119.079 86.6782 119.39 86.6652 119.727C86.6522 120.194 86.6001 120.35 86.457 120.35C86.3009 120.35 86.2618 120.532 86.2488 121.154C86.2488 121.673 86.2098 121.88 86.1448 121.725C86.0537 121.491 86.0407 121.491 85.9626 121.79C85.9106 121.958 85.8715 122.399 85.8715 122.775C85.8715 123.151 85.8065 123.462 85.7284 123.488C85.6373 123.514 85.5593 124.111 85.5072 125.019C85.4682 125.836 85.4031 126.393 85.3511 126.251C85.221 125.875 85.1169 129.195 85.221 130.66C85.273 131.373 85.3251 131.775 85.3511 131.568C85.3771 131.347 85.4292 131.931 85.4812 132.865C85.5462 133.915 85.6373 134.564 85.7284 134.59C85.8065 134.616 85.8715 134.94 85.8715 135.368C85.8715 135.77 85.9366 136.198 86.0016 136.302C86.1187 136.47 86.1317 136.47 86.1578 136.302C86.1708 136.198 86.2098 136.457 86.2488 136.885C86.3009 137.404 86.3789 137.65 86.496 137.624C86.6262 137.598 86.7172 138.312 86.6392 138.856C86.6392 138.895 86.7172 138.986 86.8343 139.051C86.9644 139.129 87.0425 139.349 87.0425 139.673C87.0425 140.05 87.0945 140.192 87.2377 140.192C87.3678 140.192 87.4328 140.322 87.4328 140.581C87.4328 140.841 87.4979 140.97 87.628 140.97C87.7581 140.97 87.8232 141.1 87.8232 141.359C87.8232 141.58 87.8882 141.748 87.9923 141.748C88.0964 141.748 88.0834 141.8 87.9533 141.878C87.8362 141.956 87.8232 142.008 87.9142 142.008C87.9923 142.008 88.0964 142.176 88.1484 142.397C88.2005 142.604 88.2785 142.786 88.3436 142.786C88.4086 142.786 88.4867 142.967 88.5387 143.175C88.5908 143.395 88.6689 143.564 88.7339 143.564C88.799 143.564 88.877 143.733 88.9291 143.953C88.9811 144.161 89.0722 144.342 89.1372 144.342C89.2023 144.342 89.2543 144.433 89.2543 144.537C89.2543 144.64 89.3454 144.731 89.4495 144.731C89.5796 144.731 89.6447 144.861 89.6447 145.12C89.6447 145.38 89.7097 145.509 89.8398 145.509C89.9569 145.509 90.035 145.626 90.035 145.834C90.035 146.041 90.1131 146.158 90.2302 146.158C90.3342 146.158 90.4253 146.275 90.4253 146.417C90.4253 146.56 90.5164 146.677 90.6205 146.677C90.7376 146.677 90.8156 146.793 90.8156 147.001C90.8156 147.208 90.8937 147.325 91.0108 147.325C91.1149 147.325 91.206 147.416 91.206 147.52C91.206 147.623 91.271 147.714 91.3361 147.714C91.4141 147.714 91.4662 147.805 91.4662 147.909C91.4662 148.012 91.5443 148.103 91.6483 148.103C91.7524 148.103 91.8695 148.285 91.9216 148.492C91.9736 148.713 92.0647 148.855 92.1297 148.803C92.1948 148.765 92.2468 148.829 92.2468 148.933C92.2468 149.05 92.3379 149.141 92.442 149.141C92.5461 149.141 92.6372 149.231 92.6372 149.335C92.6372 149.439 92.7282 149.53 92.8323 149.53C92.9364 149.53 93.0275 149.646 93.0275 149.789C93.0275 149.932 93.1186 150.048 93.2226 150.048C93.3528 150.048 93.4178 150.178 93.4308 150.399C93.4308 150.71 93.4438 150.723 93.5349 150.502C93.626 150.282 93.652 150.308 93.7431 150.697C93.8212 151.073 93.8602 151.112 93.9382 150.891C94.0163 150.671 94.0423 150.684 94.1204 151.021C94.1985 151.306 94.2375 151.358 94.3416 151.203C94.4327 151.047 94.4587 151.06 94.4587 151.242C94.4587 151.501 95.1873 152.253 95.4475 152.253C95.5516 152.253 95.6297 152.344 95.6297 152.448C95.6297 152.551 95.7207 152.642 95.8248 152.642C95.9289 152.642 96.02 152.694 96.02 152.772C96.02 152.837 96.1111 152.902 96.2151 152.902C96.3192 152.902 96.4103 152.992 96.4103 153.096C96.4103 153.2 96.5014 153.291 96.6055 153.291C96.7096 153.291 96.8006 153.381 96.8006 153.485C96.8006 153.589 96.8917 153.68 96.9958 153.68C97.0999 153.68 97.191 153.77 97.191 153.874C97.191 153.978 97.282 154.069 97.3861 154.069C97.4902 154.069 97.5813 154.147 97.5813 154.224C97.5813 154.341 97.6333 154.328 97.7114 154.198C97.8155 154.03 97.8415 154.043 97.8415 154.224C97.8415 154.354 97.9196 154.458 98.0237 154.458C98.1277 154.458 98.2318 154.549 98.2839 154.652C98.3229 154.756 98.44 154.847 98.5571 154.847C98.6612 154.847 98.7393 154.912 98.7262 154.99C98.7002 155.067 98.8303 155.158 99.0125 155.184C99.1946 155.223 99.3638 155.301 99.3768 155.366C99.4028 155.443 99.5069 155.495 99.611 155.495C99.7151 155.495 99.7931 155.586 99.7931 155.69C99.7931 155.794 99.8842 155.897 99.9883 155.897C100.444 155.936 100.509 155.962 100.47 156.118C100.457 156.209 100.535 156.273 100.639 156.273C100.756 156.273 100.873 156.364 100.925 156.481C100.99 156.65 101.016 156.65 101.107 156.507C101.198 156.377 101.224 156.377 101.224 156.494C101.224 156.585 101.341 156.662 101.485 156.662C101.628 156.662 101.745 156.753 101.745 156.857C101.745 156.974 101.862 157.052 102.07 157.052C102.278 157.052 102.395 157.129 102.395 157.246C102.395 157.376 102.525 157.441 102.786 157.441C103.046 157.441 103.176 157.505 103.176 157.635C103.176 157.752 103.306 157.83 103.514 157.83C103.696 157.83 103.931 157.92 104.035 158.024C104.152 158.128 104.412 158.219 104.62 158.219C104.867 158.219 104.997 158.284 104.997 158.413C104.997 158.543 105.128 158.608 105.375 158.608C105.583 158.608 105.778 158.66 105.804 158.737C105.83 158.802 106.064 158.867 106.338 158.893C106.611 158.906 106.871 158.997 106.923 159.088C106.975 159.165 107.248 159.256 107.522 159.282C107.795 159.295 108.042 159.386 108.081 159.477C108.12 159.58 108.393 159.645 108.849 159.645C109.382 159.645 109.551 159.697 109.551 159.84C109.551 159.995 109.733 160.034 110.462 160.034C111.191 160.034 111.373 160.073 111.373 160.229C111.373 160.385 111.607 160.423 112.726 160.423C113.585 160.423 114.105 160.475 114.131 160.566C114.196 160.748 116.863 160.877 118.438 160.748C119.14 160.696 119.674 160.605 119.622 160.54C119.583 160.475 120.142 160.423 120.923 160.423C122.068 160.423 122.302 160.385 122.302 160.229C122.302 160.073 122.484 160.034 123.213 160.034C123.941 160.034 124.123 159.995 124.123 159.84C124.123 159.684 124.293 159.645 124.904 159.645C125.516 159.645 125.685 159.606 125.685 159.451C125.685 159.347 125.724 159.269 125.789 159.269C126.192 159.334 126.856 159.23 126.83 159.101C126.804 159.023 127.012 158.932 127.311 158.906C127.597 158.867 127.858 158.789 127.871 158.725C127.897 158.66 128.092 158.608 128.3 158.608C128.547 158.608 128.677 158.543 128.677 158.413C128.677 158.297 128.794 158.219 128.976 158.219C129.432 158.219 129.848 158.076 129.77 157.946C129.718 157.843 130.095 157.765 130.408 157.817C130.46 157.817 130.499 157.739 130.499 157.635C130.499 157.505 130.629 157.441 130.889 157.441C131.149 157.441 131.279 157.376 131.279 157.246C131.279 157.116 131.409 157.052 131.683 157.052C131.995 157.052 132.073 157 132.008 156.857C131.956 156.727 132.021 156.662 132.19 156.662C132.333 156.662 132.45 156.585 132.45 156.494C132.45 156.377 132.476 156.377 132.567 156.507C132.659 156.65 132.685 156.65 132.75 156.481C132.802 156.364 132.919 156.273 133.036 156.273C133.14 156.273 133.231 156.196 133.231 156.105C133.231 156.014 133.361 155.936 133.517 155.923C133.673 155.91 133.856 155.807 133.908 155.69C133.973 155.586 134.116 155.495 134.22 155.495C134.324 155.495 134.376 155.43 134.337 155.366C134.285 155.288 134.428 155.236 134.649 155.236C134.922 155.236 135.053 155.171 135.053 155.041C135.053 154.938 135.144 154.847 135.248 154.847C135.352 154.847 135.443 154.756 135.443 154.652C135.443 154.549 135.534 154.458 135.638 154.458C135.742 154.458 135.833 154.354 135.833 154.224C135.833 154.043 135.859 154.03 135.963 154.198C136.041 154.328 136.093 154.341 136.093 154.224C136.093 154.147 136.184 154.069 136.289 154.069C136.393 154.069 136.484 153.978 136.484 153.874C136.484 153.77 136.575 153.68 136.679 153.68C136.783 153.68 136.874 153.589 136.874 153.485C136.874 153.381 136.991 153.291 137.147 153.291C137.303 153.291 137.368 153.239 137.329 153.148C137.277 153.07 137.355 152.979 137.512 152.94C137.655 152.902 137.746 152.824 137.707 152.759C137.668 152.694 137.733 152.642 137.837 152.642C137.954 152.642 138.045 152.564 138.045 152.461C138.045 152.357 138.201 152.24 138.396 152.188C138.644 152.136 138.696 152.072 138.578 152.007C138.461 151.929 138.5 151.877 138.735 151.812C138.93 151.773 139.112 151.592 139.19 151.384C139.268 151.177 139.333 151.112 139.346 151.216C139.359 151.319 139.45 151.229 139.541 151.021C139.684 150.71 139.723 150.684 139.736 150.891C139.749 151.073 139.814 151.008 139.932 150.697C140.062 150.373 140.114 150.321 140.127 150.502C140.14 150.71 140.166 150.697 140.283 150.399C140.348 150.204 140.465 150.048 140.53 150.048C140.595 150.048 140.647 149.932 140.647 149.789C140.647 149.646 140.738 149.53 140.842 149.53C140.946 149.53 141.038 149.439 141.038 149.335C141.038 149.231 141.129 149.141 141.233 149.141C141.337 149.141 141.428 149.05 141.428 148.946C141.428 148.842 141.493 148.765 141.584 148.777C141.74 148.816 141.766 148.752 141.805 148.298C141.805 148.194 141.909 148.103 142.013 148.103C142.117 148.103 142.208 148.012 142.208 147.909C142.208 147.805 142.3 147.714 142.404 147.714C142.508 147.714 142.599 147.623 142.599 147.52C142.599 147.416 142.651 147.325 142.716 147.325C142.781 147.325 142.872 147.143 142.924 146.936C142.976 146.715 143.067 146.573 143.132 146.625C143.197 146.664 143.249 146.599 143.249 146.495C143.249 146.391 143.34 146.249 143.445 146.184C143.562 146.132 143.666 145.95 143.679 145.795C143.692 145.639 143.77 145.509 143.861 145.509C143.965 145.509 144.03 145.354 144.03 145.12C144.03 144.861 144.095 144.731 144.225 144.731C144.329 144.731 144.42 144.64 144.42 144.537C144.42 144.433 144.511 144.342 144.615 144.342C144.746 144.342 144.811 144.212 144.811 143.953C144.811 143.72 144.876 143.564 144.98 143.564C145.071 143.564 145.162 143.408 145.175 143.227C145.188 143.045 145.292 142.812 145.396 142.708C145.5 142.591 145.591 142.332 145.591 142.125C145.591 141.878 145.656 141.748 145.786 141.748C145.917 141.748 145.982 141.619 145.982 141.359C145.982 141.139 146.047 140.97 146.112 140.97C146.19 140.97 146.242 140.789 146.242 140.581C146.242 140.322 146.307 140.192 146.437 140.192C146.567 140.192 146.632 140.05 146.645 139.803C146.671 139.207 146.684 139.155 146.853 139.051C146.931 138.999 147.009 138.701 147.035 138.377C147.075 137.663 147.166 137.469 147.296 137.806C147.361 137.962 147.4 137.754 147.4 137.235C147.413 136.613 147.452 136.431 147.608 136.431C147.764 136.431 147.803 136.25 147.803 135.536C147.803 134.927 147.855 134.616 147.972 134.59C148.076 134.551 148.154 134.019 148.206 132.852C148.246 131.931 148.298 131.347 148.311 131.568L148.35 131.957L148.454 131.568C148.558 131.114 148.597 127.197 148.493 126.679C148.454 126.484 148.376 126.355 148.311 126.393C148.246 126.432 148.193 125.862 148.193 125.097C148.193 124.059 148.141 123.696 147.998 123.54C147.855 123.411 147.803 123.073 147.803 122.425C147.803 121.647 147.764 121.504 147.608 121.569C147.452 121.621 147.413 121.517 147.413 120.998C147.413 120.467 147.374 120.35 147.192 120.337C146.996 120.337 146.996 120.311 147.218 120.22C147.439 120.13 147.439 120.104 147.257 120.104C147.075 120.091 147.022 119.974 147.022 119.507C147.022 119.079 146.97 118.923 146.827 118.923C146.684 118.923 146.632 118.781 146.632 118.366C146.632 118.016 146.593 117.886 146.515 117.99C146.437 118.119 146.385 118.093 146.333 117.86C146.281 117.704 146.242 117.432 146.242 117.263C146.242 117.095 146.19 117.004 146.112 117.043C146.034 117.095 145.982 116.965 145.969 116.758C145.956 116.33 145.747 115.759 145.721 116.07C145.708 116.174 145.643 116.031 145.578 115.746C145.513 115.474 145.396 115.201 145.331 115.162C145.266 115.124 145.188 114.942 145.149 114.773C145.123 114.592 145.032 114.462 144.954 114.488C144.876 114.501 144.811 114.345 144.811 114.125C144.811 113.866 144.746 113.736 144.615 113.736C144.511 113.736 144.42 113.619 144.42 113.477C144.42 113.334 144.329 113.217 144.225 113.217C144.108 113.217 144.03 113.1 144.03 112.893C144.03 112.685 143.952 112.569 143.835 112.569C143.705 112.569 143.64 112.439 143.64 112.18C143.64 111.92 143.575 111.791 143.445 111.791C143.34 111.791 143.249 111.7 143.249 111.596C143.249 111.492 143.158 111.402 143.054 111.402C142.95 111.402 142.872 111.363 142.872 111.298C142.924 110.987 142.846 110.623 142.729 110.688C142.664 110.727 142.599 110.675 142.599 110.572C142.599 110.455 142.508 110.364 142.404 110.364C142.3 110.364 142.208 110.273 142.208 110.17C142.208 110.053 142.117 109.936 142.013 109.897C141.909 109.845 141.818 109.677 141.818 109.508C141.818 109.314 141.74 109.197 141.623 109.197C141.519 109.197 141.428 109.106 141.428 109.002C141.428 108.899 141.337 108.808 141.233 108.808C141.129 108.808 141.038 108.717 141.038 108.613C141.038 108.51 140.946 108.419 140.842 108.419C140.738 108.419 140.647 108.328 140.647 108.224C140.647 108.12 140.556 108.03 140.452 108.03C140.348 108.03 140.27 107.991 140.27 107.926C140.283 107.874 140.283 107.718 140.27 107.576C140.257 107.368 140.231 107.355 140.14 107.498C140.036 107.654 139.997 107.615 139.932 107.342C139.88 107.148 139.762 106.992 139.658 106.992C139.554 106.992 139.476 106.927 139.476 106.862C139.476 106.642 138.982 106.214 138.917 106.383C138.878 106.473 138.813 106.383 138.761 106.188C138.696 105.916 138.591 105.825 138.357 105.825C138.162 105.825 138.045 105.747 138.045 105.63C138.045 105.527 137.954 105.436 137.85 105.436C137.746 105.436 137.655 105.345 137.655 105.241C137.655 105.138 137.564 105.047 137.447 105.047C137.342 105.047 137.29 104.982 137.329 104.904C137.381 104.826 137.303 104.736 137.147 104.697C137.004 104.658 136.913 104.58 136.952 104.515C136.991 104.45 136.913 104.36 136.783 104.308C136.653 104.256 136.419 104.087 136.25 103.919C136.093 103.737 135.846 103.594 135.703 103.581C135.56 103.568 135.443 103.491 135.443 103.4C135.443 103.309 135.352 103.231 135.248 103.231C135.144 103.231 135.053 103.14 135.053 103.037C135.053 102.907 134.922 102.842 134.662 102.842C134.402 102.842 134.272 102.777 134.272 102.648C134.272 102.544 134.181 102.453 134.077 102.453C133.973 102.453 133.882 102.362 133.882 102.259C133.882 102.129 133.751 102.064 133.478 102.064C133.231 102.064 133.114 102.012 133.166 101.921C133.218 101.844 133.14 101.753 132.984 101.714C132.828 101.675 132.711 101.584 132.711 101.493C132.711 101.416 132.646 101.442 132.58 101.545C132.476 101.714 132.45 101.701 132.45 101.506C132.45 101.377 132.346 101.286 132.177 101.286C132.034 101.286 131.956 101.221 131.995 101.156C132.047 101.078 131.904 101.027 131.683 101.027C131.409 101.027 131.279 100.962 131.279 100.832C131.279 100.715 131.162 100.637 130.954 100.637C130.785 100.637 130.59 100.56 130.538 100.456C130.486 100.352 130.291 100.248 130.108 100.222C129.926 100.197 129.796 100.106 129.822 100.015C129.835 99.9112 129.653 99.8594 129.263 99.8594C128.833 99.8594 128.677 99.8075 128.677 99.6648C128.677 99.5352 128.547 99.4703 128.287 99.4703C128.027 99.4703 127.897 99.4055 127.897 99.2758C127.897 99.1331 127.74 99.0812 127.311 99.0812C126.921 99.0812 126.739 99.0294 126.752 98.9256C126.791 98.757 126.713 98.7311 125.997 98.7052C125.75 98.7052 125.568 98.6403 125.607 98.5755C125.698 98.4328 125.242 98.3031 124.605 98.3031C124.306 98.3031 124.136 98.2512 124.149 98.1475C124.188 97.9659 124.136 97.953 123.057 97.927C122.471 97.9141 122.289 97.8752 122.432 97.7844C122.562 97.6936 122.302 97.6547 121.573 97.6547C120.181 97.6547 119.166 97.525 119.505 97.3823C119.648 97.3305 118.451 97.2916 116.837 97.2916C115.224 97.2916 114.053 97.3305 114.235 97.3823C114.508 97.4602 114.469 97.4861 113.923 97.5639C113.572 97.6158 112.856 97.6547 112.323 97.6547C111.711 97.6547 111.386 97.7066 111.438 97.7844C111.503 97.8881 110.111 98.0048 109.655 97.927C109.59 97.927 109.551 98.0048 109.551 98.1086C109.551 98.2512 109.408 98.3031 109.07 98.3031C108.432 98.3031 107.977 98.4328 108.068 98.5755C108.12 98.6662 107.404 98.77 107.053 98.7052C106.988 98.7052 106.949 98.783 106.949 98.8867C106.949 99.0294 106.793 99.0812 106.364 99.0812C105.934 99.0812 105.778 99.1331 105.778 99.2758C105.778 99.4055 105.648 99.4703 105.388 99.4703C105.128 99.4703 104.997 99.5352 104.997 99.6648C104.997 99.8075 104.854 99.8594 104.477 99.8594C104.1 99.8594 103.957 99.9112 103.957 100.054C103.957 100.184 103.826 100.248 103.579 100.248C103.371 100.248 103.176 100.326 103.124 100.443C103.085 100.547 102.903 100.637 102.721 100.637C102.512 100.637 102.395 100.715 102.395 100.832C102.395 100.962 102.265 101.027 101.992 101.027C101.771 101.027 101.628 101.078 101.68 101.156C101.719 101.221 101.641 101.286 101.498 101.286C101.328 101.286 101.224 101.377 101.224 101.506C101.224 101.701 101.198 101.714 101.094 101.545C101.029 101.442 100.964 101.416 100.964 101.493C100.964 101.584 100.847 101.675 100.691 101.714C100.535 101.753 100.457 101.844 100.509 101.921C100.561 102.012 100.444 102.064 100.196 102.064C99.9883 102.064 99.7931 102.129 99.7671 102.207C99.7151 102.375 83.7508 83.1167 83.6857 82.8055C83.6597 82.7017 83.7247 82.6109 83.8418 82.6109C83.9589 82.6109 84.05 82.5201 84.05 82.4164C84.05 82.3127 84.1411 82.2219 84.2452 82.2219C84.3493 82.2219 84.4403 82.157 84.4403 82.0922C84.4403 82.0144 84.5314 81.9625 84.6355 81.9625C84.7396 81.9625 84.8307 81.8977 84.8307 81.8328C84.8307 81.755 85.0648 81.4827 85.3511 81.1973C85.6373 80.925 85.8715 80.6267 85.8715 80.5489C85.8715 80.4711 85.9626 80.4062 86.0667 80.4062C86.1708 80.4062 86.2618 80.3155 86.2618 80.2117C86.2618 80.108 86.3529 80.0172 86.457 80.0172C86.6262 80.0172 86.7172 79.7708 86.6262 79.5503C86.6001 79.5114 86.6912 79.4206 86.8213 79.3558C86.9384 79.278 87.0425 79.1353 87.0425 79.0445C87.0425 78.9408 87.1336 78.85 87.2377 78.85C87.3548 78.85 87.4328 78.7333 87.4328 78.5258C87.4328 78.3183 87.5109 78.2016 87.628 78.2016C87.7321 78.2016 87.8232 78.1108 87.8232 78.007C87.8232 77.9033 87.8752 77.8125 87.9402 77.8125C88.0053 77.8125 88.0964 77.6309 88.1484 77.4234C88.2005 77.203 88.2915 77.0344 88.3566 77.0344C88.4216 77.0344 88.4737 76.9566 88.4737 76.8528C88.4737 76.7491 88.5778 76.5675 88.6949 76.4378C88.812 76.3211 88.9421 76.1006 88.9551 75.945C88.9811 75.8023 89.0592 75.6467 89.1242 75.6337C89.2023 75.6078 89.2543 75.4133 89.2543 75.2058C89.2543 74.9594 89.3194 74.8297 89.4495 74.8297C89.5796 74.8297 89.6447 74.687 89.6577 74.3369C89.6707 74.0775 89.6707 73.8181 89.6577 73.7533C89.6577 73.7014 89.7357 73.6625 89.8398 73.6625C89.9699 73.6625 90.035 73.5328 90.035 73.2734C90.035 73.053 90.1 72.8844 90.2041 72.8844C90.3212 72.8844 90.3212 72.8584 90.1911 72.7677C90.048 72.6769 90.048 72.6509 90.2171 72.5861C90.3603 72.5212 90.4253 72.3267 90.4253 71.9117C90.4253 71.4837 90.4774 71.3281 90.6205 71.3281C90.7246 71.3281 90.8026 71.2892 90.8026 71.2244C90.7376 70.8094 90.8547 68.8511 90.9327 69.0456C91.0238 69.2791 91.0368 69.2791 91.1149 68.9808C91.1669 68.8122 91.206 67.7358 91.206 66.5945C91.206 65.4533 91.1669 64.3769 91.1149 64.2083C91.0368 63.91 91.0238 63.91 90.9327 64.1434C90.8807 64.2861 90.8287 63.8841 90.8287 63.1967C90.8156 62.3278 90.7636 61.9517 90.6205 61.8091C90.5164 61.7053 90.4253 61.3941 90.4253 61.0958C90.4253 60.6808 90.3733 60.5641 90.2041 60.5641C90.009 60.5641 89.996 60.5381 90.1651 60.4344C90.2952 60.3566 90.3082 60.3047 90.2041 60.3047C90.1 60.3047 90.035 60.1231 90.035 59.8508C90.035 59.5136 89.9829 59.3969 89.8138 59.3839C89.6186 59.3839 89.6186 59.358 89.8398 59.2672C90.061 59.1764 90.061 59.1505 89.8789 59.1505C89.7097 59.1375 89.6447 59.0337 89.6447 58.7484C89.6447 58.4891 89.5796 58.3594 89.4495 58.3594C89.3194 58.3594 89.2543 58.2297 89.2543 57.9833C89.2543 57.7758 89.2023 57.5812 89.1242 57.5553C89.0592 57.5294 88.9811 57.3867 88.9551 57.2181C88.9291 57.0495 88.838 56.868 88.7599 56.8161C88.6819 56.7642 88.5908 56.5827 88.5518 56.4141C88.5257 56.2325 88.4477 56.1028 88.3696 56.1158C88.2915 56.1287 88.2005 55.9731 88.1484 55.7656C88.0964 55.5452 88.0183 55.3766 87.9533 55.3766C87.8882 55.3766 87.7971 55.182 87.7451 54.9486C87.667 54.5855 87.641 54.5725 87.5499 54.793C87.4719 55.0005 87.4458 54.9745 87.4458 54.6244C87.4328 54.365 87.3678 54.2094 87.2507 54.2094C87.1596 54.2094 87.0425 54.0926 87.0035 53.95C86.9514 53.7555 89.0722 51.4211 96.6705 43.2767C106.39 32.8887 106.416 32.8628 106.871 32.9147C107.118 32.9406 107.313 33.0314 107.3 33.1222C107.287 33.2 107.43 33.2778 107.639 33.3037C107.834 33.3297 107.99 33.4205 107.99 33.5372C107.99 33.6539 108.133 33.7187 108.38 33.7187C108.641 33.7187 108.771 33.7836 108.771 33.9133C108.771 34.043 108.901 34.1078 109.161 34.1078C109.382 34.1078 109.551 34.1597 109.551 34.2245C109.551 34.2894 109.851 34.3672 110.215 34.3931C110.579 34.432 110.917 34.5228 110.969 34.5876C111.008 34.6655 111.451 34.7433 111.945 34.7822C112.492 34.8081 112.869 34.8989 112.908 34.9897C112.973 35.2101 116.668 35.2101 116.733 34.9897C116.759 34.9119 117.202 34.8081 117.761 34.7562C118.295 34.7044 118.672 34.6525 118.594 34.6395C118.321 34.5747 119.01 34.3801 119.544 34.3801C119.882 34.3672 120.077 34.3153 120.025 34.2375C119.973 34.1597 120.116 34.1078 120.35 34.1078C120.571 34.1078 120.78 34.03 120.819 33.9262C120.858 33.8355 121.131 33.7058 121.43 33.6539C121.873 33.5761 121.925 33.5501 121.716 33.4594C121.495 33.3816 121.534 33.3556 121.912 33.3167C122.185 33.2778 122.354 33.2 122.328 33.0962C122.315 33.0055 122.445 32.9406 122.692 32.9406C122.952 32.9406 123.083 32.8758 123.083 32.7461C123.083 32.6294 123.2 32.5516 123.408 32.5516C123.616 32.5516 123.733 32.4737 123.733 32.357C123.733 32.2533 123.85 32.1625 124.006 32.1625C124.149 32.1625 124.241 32.1106 124.201 32.0587C124.11 31.9031 124.579 31.54 124.995 31.4362C125.307 31.3455 125.32 31.3325 125.099 31.2547C124.878 31.1769 124.904 31.1509 125.268 31.0731C125.503 31.0212 125.646 30.9175 125.607 30.8526C125.568 30.7748 125.646 30.6841 125.802 30.6451C125.945 30.6062 126.036 30.5284 125.997 30.4636C125.958 30.3987 126.049 30.295 126.205 30.2431C126.361 30.1912 126.478 30.1005 126.478 30.0486C126.465 29.9967 126.465 29.854 126.465 29.7244C126.465 29.5428 126.491 29.5298 126.582 29.6855C126.687 29.8411 126.726 29.8022 126.791 29.5298C126.843 29.3353 126.934 29.1797 126.999 29.1797C127.064 29.1797 127.116 29.0889 127.116 28.9852C127.116 28.8814 127.207 28.7906 127.311 28.7906C127.415 28.7906 127.506 28.6998 127.506 28.5961C127.506 28.4923 127.597 28.4016 127.701 28.4016C127.831 28.4016 127.897 28.2719 127.897 28.0125C127.897 27.7531 127.962 27.6234 128.092 27.6234C128.209 27.6234 128.287 27.5067 128.287 27.2992C128.287 27.0917 128.365 26.975 128.482 26.975C128.612 26.975 128.677 26.8453 128.677 26.5859C128.677 26.3266 128.742 26.1969 128.872 26.1969C129.002 26.1969 129.068 26.0672 129.068 25.8078C129.068 25.5614 129.133 25.4317 129.237 25.4447C129.328 25.4706 129.406 25.328 129.432 25.1075C129.458 24.9 129.562 24.6536 129.666 24.5498C129.77 24.4461 129.848 24.1089 129.848 23.7587C129.848 23.3178 129.887 23.2011 129.978 23.3437C130.069 23.4864 130.108 23.3308 130.121 22.7861C130.134 22.384 130.16 21.982 130.173 21.9172C130.186 21.8394 130.212 21.6708 130.225 21.5152C130.225 21.3725 130.304 21.2947 130.369 21.3336C130.447 21.3855 130.499 20.7241 130.499 19.4531C130.499 18.1822 130.447 17.5208 130.369 17.5726C130.304 17.6116 130.239 17.6375 130.239 17.6116C130.186 16.7037 130.043 15.744 129.965 15.7181C129.9 15.6922 129.848 15.4198 129.848 15.1086C129.848 14.7844 129.77 14.4601 129.653 14.3434C129.549 14.2397 129.458 14.0062 129.458 13.8247C129.458 13.6172 129.38 13.4875 129.263 13.4875C129.133 13.4875 129.068 13.3578 129.068 13.0984C129.068 12.8391 129.002 12.7094 128.872 12.7094C128.742 12.7094 128.677 12.5797 128.677 12.3203C128.677 12.0609 128.612 11.9312 128.482 11.9312C128.365 11.9312 128.287 11.8145 128.287 11.607C128.287 11.3995 128.209 11.2828 128.092 11.2828C127.962 11.2828 127.897 11.1531 127.897 10.8548C127.897 10.5565 127.858 10.4917 127.779 10.6214C127.675 10.777 127.636 10.7381 127.571 10.4658C127.519 10.2712 127.402 10.1156 127.298 10.1156C127.194 10.1156 127.116 10.0248 127.116 9.92108C127.116 9.81734 127.064 9.72655 126.986 9.72655C126.921 9.72655 126.817 9.57092 126.778 9.38937C126.713 9.14296 126.661 9.10405 126.582 9.23373C126.491 9.36343 126.465 9.33749 126.452 9.14296C126.439 9.00031 126.439 8.84468 126.452 8.77983C126.452 8.72797 126.387 8.68906 126.296 8.68906C126.114 8.68906 125.607 8.15733 125.646 8.01468C125.672 7.97577 125.49 7.88499 125.255 7.83311C124.904 7.75531 124.878 7.72937 125.099 7.65155C125.32 7.57375 125.294 7.54781 124.943 7.46999C124.709 7.41812 124.514 7.31436 124.514 7.24953C124.514 7.18468 124.423 7.1328 124.306 7.1328C124.175 7.1328 124.123 7.05499 124.175 6.93828C124.227 6.80858 124.162 6.74374 123.993 6.74374C123.85 6.74374 123.733 6.69186 123.733 6.61406C123.733 6.54921 123.59 6.45844 123.408 6.40656C123.226 6.36765 123.083 6.25093 123.083 6.14719C123.083 6.03046 122.939 5.96562 122.692 5.96562C122.445 5.96562 122.315 5.90077 122.328 5.79703C122.354 5.70624 122.185 5.62843 121.912 5.58952C121.534 5.55061 121.495 5.52467 121.716 5.44687C121.925 5.35608 121.899 5.33015 121.521 5.31718C121.274 5.29124 121.027 5.29124 120.975 5.30421C120.91 5.30421 120.871 5.23936 120.871 5.13562C120.871 5.01889 120.715 4.92812 120.454 4.90218C120.22 4.87624 120.051 4.79843 120.09 4.73358C120.129 4.65578 119.83 4.56499 119.374 4.52609C118.958 4.47421 118.581 4.37045 118.555 4.29265C118.529 4.20187 118.138 4.14999 117.54 4.14999C116.746 4.14999 116.603 4.11108 116.655 3.95546C116.72 3.78687 116.473 3.76093 114.834 3.76093C113.233 3.76093 112.934 3.78687 112.934 3.95546Z" fill="#171774"/>
</svg>
