<svg width="115" height="74" viewBox="0 0 115 74" fill="none" xmlns="http://www.w3.org/2000/svg">
<path d="M9.58333 45.0435C10.9144 45.0435 11.8461 44.5072 12.3785 43.4348C12.9109 42.3623 12.9109 41.2899 12.3785 40.2174C11.8461 39.1449 10.9144 38.6087 9.58333 38.6087C8.25231 38.6087 7.3206 39.1449 6.78819 40.2174C6.25579 41.2899 6.25579 42.3623 6.78819 43.4348C7.3206 44.5072 8.25231 45.0435 9.58333 45.0435ZM83.1055 42.1277C82.7727 41.692 82.1322 40.8542 81.1838 39.6141C80.2355 38.3741 79.545 37.4692 79.1124 36.8995C78.6798 36.3297 78.0476 35.5086 77.2157 34.4361C76.3838 33.3637 75.6767 32.4755 75.0944 31.7717C74.5121 31.0679 73.8382 30.2803 73.0729 29.409C72.3076 28.5376 71.5589 27.7165 70.8268 26.9457L64.5877 33.9837C61.8258 37.1341 58.3568 38.6757 54.1808 38.6087C50.0047 38.5417 46.5856 36.8995 43.9236 33.6821C42.0269 31.3696 41.0869 28.7219 41.1035 25.7391C41.1202 22.7563 42.0935 20.1255 44.0234 17.8465L52.8581 7.49049C52.126 7.12183 51.2775 6.84534 50.3125 6.66101C49.3475 6.47668 48.5572 6.37613 47.9416 6.35938C47.326 6.34262 46.386 6.351 45.1215 6.38451C43.8571 6.41803 43.0418 6.43478 42.6758 6.43478C39.6144 6.43478 36.9857 7.54076 34.7895 9.75272L26.9032 17.6957H19.1667V45.0435C19.333 45.0435 19.6824 45.0351 20.2148 45.0183C20.7473 45.0016 21.1133 45.0016 21.3129 45.0183C21.5126 45.0351 21.837 45.0686 22.2862 45.1189C22.7355 45.1692 23.0765 45.2446 23.3095 45.3451C23.5424 45.4457 23.8335 45.5881 24.1829 45.7724C24.5323 45.9567 24.8401 46.183 25.1063 46.4511L39.9306 61.1304C43.7572 64.8505 47.534 66.7106 51.2608 66.7106C53.8563 66.7106 55.9361 65.923 57.5 64.3478C59.3967 65.0181 61.2684 64.8841 63.1152 63.9457C64.962 63.0072 66.1683 61.5829 66.7339 59.6726C69.1963 59.8736 71.3093 59.1363 73.0729 57.4606C73.7384 56.8573 74.3374 56.0949 74.8698 55.1732C75.4022 54.2516 75.6351 53.4053 75.5686 52.6345C75.9013 52.9697 76.6168 53.1372 77.7148 53.1372C79.1457 53.1372 80.4268 52.7853 81.5582 52.0815C82.6895 51.3777 83.5131 50.4896 84.0289 49.4171C84.5446 48.3447 84.7443 47.1465 84.6278 45.8227C84.5114 44.4989 84.0039 43.2672 83.1055 42.1277ZM91.0417 45.0435H95.8333V19.3043H91.1914L83.355 10.2554C81.1589 7.70833 78.3471 6.43478 74.9197 6.43478H66.5842C63.6227 6.43478 61.1936 7.55752 59.2969 9.80299L48.865 22.019C47.9333 23.125 47.4674 24.3818 47.4674 25.7894C47.4674 27.197 47.9167 28.4538 48.8151 29.5598C50.2459 31.269 52.0761 32.1404 54.3056 32.1739C56.535 32.2074 58.3818 31.3863 59.8459 29.7106L69.4792 18.7514C70.3111 17.9805 71.2012 17.6202 72.1495 17.6705C73.0979 17.7208 73.8798 18.1732 74.4954 19.0279C75.111 19.8825 75.2525 20.8293 74.9197 21.8682C75.4521 22.505 76.3838 23.5607 77.7148 25.0353C79.0459 26.51 80.0441 27.6495 80.7096 28.4538C81.6746 29.6603 83.0472 31.4282 84.8275 33.7575C86.6077 36.0867 87.6808 37.5027 88.0469 38.0054C89.7772 40.2174 90.7755 42.5634 91.0417 45.0435ZM105.417 45.0435C106.748 45.0435 107.679 44.5072 108.212 43.4348C108.744 42.3623 108.744 41.2899 108.212 40.2174C107.679 39.1449 106.748 38.6087 105.417 38.6087C104.086 38.6087 103.154 39.1449 102.622 40.2174C102.089 41.2899 102.089 42.3623 102.622 43.4348C103.154 44.5072 104.086 45.0435 105.417 45.0435ZM115 16.087V48.2609C115 49.1322 114.684 49.8863 114.052 50.5231C113.419 51.1599 112.671 51.4783 111.806 51.4783H90.1432C89.2448 53.6567 87.8805 55.4413 86.0503 56.8322C84.2202 58.2231 82.1405 59.086 79.8112 59.4212C78.7131 61.0299 77.3738 62.3956 75.7932 63.5183C74.2126 64.6411 72.5072 65.4035 70.6771 65.8057C69.2795 67.582 67.5409 68.9477 65.4612 69.9029C63.3814 70.858 61.2435 71.2686 59.0473 71.1345C57.0508 72.274 54.9544 72.9359 52.7582 73.1202C50.5621 73.3046 48.4408 73.07 46.3943 72.4164C44.3479 71.7629 42.4013 70.8664 40.5545 69.7269C38.7077 68.5874 36.9857 67.2301 35.3885 65.6549L21.0634 51.4783H3.19444C2.32928 51.4783 1.58058 51.1599 0.948351 50.5231C0.316117 49.8863 0 49.1322 0 48.2609V14.4783C0 13.6069 0.316117 12.8528 0.948351 12.216C1.58058 11.5793 2.32928 11.2609 3.19444 11.2609H24.2079C24.6738 10.7917 25.4557 9.98732 26.5538 8.84783C27.6519 7.70833 28.4422 6.90399 28.9247 6.43478C29.4072 5.96558 30.1392 5.29529 31.1209 4.42391C32.1025 3.55254 32.9427 2.92414 33.6415 2.53872C34.3403 2.15331 35.1888 1.726 36.1871 1.25679C37.1853 0.787591 38.2169 0.460824 39.2817 0.276495C40.3465 0.0921649 41.4779 0 42.6758 0H48.5156C51.8099 0 54.8213 0.938406 57.5499 2.81522C60.2785 0.938406 63.2899 0 66.5842 0H74.9197C76.0843 0 77.1991 0.100543 78.2639 0.30163C79.3287 0.502717 80.2687 0.745697 81.084 1.03057C81.8992 1.31544 82.7561 1.75951 83.6545 2.36277C84.5529 2.96603 85.2933 3.48551 85.8756 3.9212C86.458 4.35688 87.1734 5.0188 88.0219 5.90693C88.8704 6.79506 89.5193 7.49887 89.9685 8.01834C90.4177 8.53782 91.0999 9.34216 92.015 10.4314C92.93 11.5206 93.6205 12.3333 94.0864 12.8696H111.806C112.671 12.8696 113.419 13.188 114.052 13.8247C114.684 14.4615 115 15.2156 115 16.087Z" fill="#171774"/>
</svg>
