<svg width="100" height="60" viewBox="0 0 100 60" fill="none" xmlns="http://www.w3.org/2000/svg">
<path fill-rule="evenodd" clip-rule="evenodd" d="M35.4578 0.280776C29.3363 1.37178 23.3073 4.68578 19.0343 9.30778L16.5343 12.0123L12.0343 12.2623C8.47878 12.4598 7.53428 12.6698 7.53428 13.2623C7.53428 13.8463 8.33578 14.0448 11.1593 14.1593C14.7423 14.3043 15.3173 14.6498 14.3933 16.1028C14.1868 16.4278 13.0093 16.7653 11.7763 16.8528C9.03428 17.0478 8.56878 18.4193 11.1593 18.6688C12.0533 18.7553 12.7808 19.0928 12.7768 19.4188C12.7563 20.9833 11.8973 21.2313 6.01528 21.3703C1.09528 21.4873 0.0342823 21.6453 0.0342823 22.2623C0.0342823 22.8723 1.01428 23.0393 5.27828 23.1563C8.16228 23.2353 10.7498 23.5318 11.0283 23.8148C11.8973 24.6988 9.78028 25.7623 7.15228 25.7623C5.09728 25.7623 4.73728 25.9008 4.87778 26.6373C5.01128 27.3393 5.66128 27.5418 8.16428 27.6613L11.2843 27.8098V30.2863V32.7623H7.99778C5.13728 32.7623 4.73278 32.8758 4.87728 33.6373C5.00928 34.3288 5.65178 34.5438 7.93978 34.6628C9.99278 34.7698 10.9218 35.0393 11.1328 35.5883C11.6233 36.8668 10.2813 37.2468 5.24278 37.2548C0.238782 37.2628 -0.321218 37.4053 0.122282 38.5613C0.332782 39.1098 1.72478 39.2623 6.52928 39.2623C12.2473 39.2623 12.6858 39.3308 12.9293 40.2623C13.1443 41.0853 12.9443 41.2623 11.7988 41.2623C11.0333 41.2623 10.1593 41.5603 9.85728 41.9243C9.03278 42.9178 10.1483 43.7623 12.2843 43.7623C13.9768 43.7623 15.2843 44.4598 15.2843 45.3623C15.2843 45.5823 13.7368 45.7623 11.8453 45.7623C9.60228 45.7623 8.21578 45.9923 7.85728 46.4243C6.79778 47.7008 8.30228 48.2623 12.7803 48.2623H17.0763L19.3053 50.5598C30.8093 62.4168 48.6118 62.6388 60.0493 51.0683C62.9293 48.1548 66.7843 42.4303 66.7843 41.0673C66.7843 40.8998 63.8648 40.7623 60.2968 40.7623H53.8098L51.9403 44.0123L50.0713 47.2623H45.3743C41.6673 47.2623 40.7313 47.1218 40.9328 46.5963C41.1948 45.9138 56.5053 21.1173 59.5853 16.3873C60.7018 14.6728 61.6398 13.7623 62.2893 13.7623C62.8368 13.7623 63.2843 13.8473 63.2843 13.9508C63.2843 14.1803 69.6718 45.5538 70.0413 47.1373C70.2893 48.2008 70.5483 48.2623 74.7938 48.2623C78.0608 48.2623 79.2803 48.0918 79.2693 47.6373C79.2608 47.2938 77.5163 39.5873 75.3918 30.5123L71.5298 14.0123L67.9348 13.8658C64.4938 13.7258 64.2968 13.6508 63.3413 12.1158C60.6598 7.80728 54.0618 3.00678 48.4303 1.26678C44.6448 0.0972757 38.9268 -0.337224 35.4578 0.280776ZM3.37078 13.5918C3.58128 14.6863 5.03428 14.8408 5.03428 13.7693C5.03428 13.3603 4.62028 12.9463 4.11378 12.8488C3.44578 12.7203 3.24228 12.9238 3.37078 13.5918ZM48.7843 14.3298C48.7843 14.6418 48.5218 16.3218 48.2008 18.0633L47.6178 21.2293L42.6088 21.3708L37.5998 21.5123L35.0668 34.2623L32.5343 47.0123L28.1593 47.1568C23.8903 47.2978 23.7843 47.2733 23.7888 46.1568C23.7908 45.5273 24.8028 39.8373 26.0368 33.5123C27.2713 27.1873 28.2818 21.8438 28.2828 21.6373C28.2838 21.4308 26.1468 21.2623 23.5343 21.2623C18.1303 21.2623 18.3638 21.5228 19.3533 16.5958L19.9223 13.7623H34.3533C44.7828 13.7623 48.7843 13.9198 48.7843 14.3298ZM89.0353 14.3873C88.9153 14.7313 87.4483 22.0998 85.7748 30.7623C84.1018 39.4248 82.6138 46.9143 82.4688 47.4058C82.2263 48.2278 82.5983 48.2878 87.1018 48.1558L91.9988 48.0123L92.6183 44.7623C92.9593 42.9748 94.3738 35.6403 95.7613 28.4638C97.1488 21.2873 98.2843 15.0433 98.2843 14.5888C98.2843 13.8813 97.6348 13.7623 93.7688 13.7623C90.6053 13.7623 89.1878 13.9493 89.0353 14.3873ZM2.80228 17.4903C1.87928 18.6028 2.63378 19.2623 4.82928 19.2623C6.18928 19.2623 6.91228 19.0098 7.12278 18.4618C7.72728 16.8863 3.99928 16.0478 2.80228 17.4903ZM61.0823 28.1338C59.5433 30.8523 58.2843 33.2303 58.2843 33.4193C58.2843 33.6078 60.0843 33.7623 62.2843 33.7623C64.4843 33.7623 66.2843 33.6748 66.2843 33.5673C66.2843 32.9783 64.2383 23.5498 64.0753 23.3863C63.9683 23.2793 62.6213 25.4158 61.0823 28.1338ZM0.628282 26.0853C-0.0797177 26.7928 0.320782 27.7623 1.32078 27.7623C2.01978 27.7623 2.30478 27.4908 2.19578 26.9288C2.01728 26.0083 1.16378 25.5493 0.628282 26.0853ZM0.550782 32.7358C0.110782 33.4473 0.671782 34.2623 1.60028 34.2623C2.03828 34.2623 2.28928 33.9108 2.19578 33.4288C2.00128 32.4243 1.00278 32.0043 0.550782 32.7358ZM2.50728 41.8058C1.93228 42.7363 3.06878 43.3373 5.08928 43.1713C6.45778 43.0588 7.07478 42.7558 7.19178 42.1373C7.32978 41.4088 6.97978 41.2623 5.10028 41.2623C3.85878 41.2623 2.69228 41.5068 2.50728 41.8058ZM3.37928 46.6373C3.47228 47.1188 3.87928 47.5123 4.28428 47.5123C4.68928 47.5123 5.09628 47.1188 5.18928 46.6373C5.30728 46.0233 5.03728 45.7623 4.28428 45.7623C3.53128 45.7623 3.26128 46.0233 3.37928 46.6373ZM61.5603 52.8873C61.4543 53.2313 61.2323 54.1308 61.0663 54.8873C60.7778 56.2053 60.8433 56.2593 62.6498 56.1943C63.8098 56.1523 64.1018 56.0428 63.4093 55.9093C62.1563 55.6683 61.8603 54.7623 63.0343 54.7623C64.0728 54.7623 63.9783 53.8863 62.9093 53.6068C62.2338 53.4303 62.2838 53.3653 63.1298 53.3203C64.8808 53.2278 65.0343 52.2623 63.2983 52.2623C62.4483 52.2623 61.6663 52.5438 61.5603 52.8873ZM65.7428 53.1848C66.0983 53.8493 66.0253 54.4098 65.4823 55.1848C64.7028 56.2973 65.1663 56.6803 66.1278 55.7188C66.5193 55.3273 66.7653 55.3273 67.0073 55.7188C67.5933 56.6663 68.3848 56.3533 67.8443 55.3878C67.4903 54.7548 67.5748 54.2703 68.1498 53.6343C69.0873 52.5988 68.6323 51.8508 67.5908 52.7153C67.1018 53.1213 66.7703 53.1438 66.5493 52.7868C65.9583 51.8298 65.2143 52.1973 65.7428 53.1848ZM69.5098 53.6058C69.3398 54.3793 69.1143 55.2938 69.0083 55.6373C68.7783 56.3838 69.0103 56.4158 70.1663 55.7988C70.6438 55.5438 71.4438 55.2073 71.9443 55.0508C73.4168 54.5913 72.8343 52.5468 71.1768 52.3558C70.0408 52.2248 69.7688 52.4288 69.5098 53.6058ZM73.5578 54.0633C73.1823 56.0638 73.5648 56.8773 74.3498 55.7478C74.7363 55.1913 74.9223 55.1643 75.1138 55.6373C75.5213 56.6413 75.9923 56.3698 76.7283 54.7078C77.4998 52.9643 77.0083 52.2848 74.9648 52.2698C74.1308 52.2638 73.8213 52.6583 73.5578 54.0633ZM78.0023 53.6373C77.8363 54.3938 77.6143 55.2938 77.5083 55.6373C77.3758 56.0673 77.8953 56.2413 79.1748 56.1943C80.3368 56.1518 80.6123 56.0448 79.9093 55.9093C78.5158 55.6408 78.4203 54.7623 79.7843 54.7623C81.0158 54.7623 81.1073 53.9198 79.9093 53.6068C79.2508 53.4348 79.3128 53.3638 80.1593 53.3203C81.8493 53.2333 81.5138 52.2623 79.7938 52.2623C78.5743 52.2623 78.2488 52.5123 78.0023 53.6373ZM81.9373 53.0848C81.7503 53.5718 81.9608 54.1548 82.4533 54.5148C83.5893 55.3453 83.4993 55.9353 82.2843 55.6173C81.1063 55.3093 80.9258 56.0178 82.0703 56.4568C82.9203 56.7833 84.7843 55.9923 84.7843 55.3058C84.7843 55.0738 84.2783 54.5313 83.6593 54.0993L82.5343 53.3148L83.6593 53.2883C85.2183 53.2523 85.0828 52.2623 83.5188 52.2623C82.8053 52.2623 82.1153 52.6213 81.9373 53.0848ZM85.8023 52.9903C85.1073 53.8278 85.5088 54.7623 86.5638 54.7623C86.9603 54.7623 87.2843 55.0133 87.2843 55.3208C87.2843 55.6328 86.8433 55.7638 86.2843 55.6173C85.2098 55.3363 84.8688 56.0393 85.9093 56.3893C86.9658 56.7448 88.2843 56.1868 88.2843 55.3843C88.2843 54.9653 87.8908 54.3238 87.4093 53.9583C86.5988 53.3433 86.6173 53.2928 87.6593 53.2783C88.2783 53.2693 88.7843 53.0373 88.7843 52.7623C88.7843 51.9938 86.4838 52.1698 85.8023 52.9903ZM91.0968 53.8248C90.6748 55.9343 90.7003 56.2623 91.2843 56.2623C91.5593 56.2623 91.7893 55.7558 91.7953 55.1373L91.8063 54.0123L92.7268 55.2093C93.8743 56.7018 94.6128 56.2928 94.8788 54.0168C95.1073 52.0588 94.4738 51.6628 93.8428 53.3688L93.4333 54.4753L92.8413 53.3688C92.0223 51.8388 91.4648 51.9848 91.0968 53.8248ZM96.0343 53.4418C94.7348 55.4253 96.4178 57.3168 98.4633 56.1723C99.3563 55.6723 99.5933 54.2623 98.7843 54.2623C98.5093 54.2623 98.2843 54.6188 98.2843 55.0538C98.2843 56.2253 97.0608 55.6128 96.8743 54.3483C96.7398 53.4308 96.9578 53.2623 98.2788 53.2623C99.1948 53.2623 99.7153 53.0548 99.5343 52.7623C98.9528 51.8213 96.8253 52.2343 96.0343 53.4418ZM71.7843 53.7623C71.7843 54.0373 71.4468 54.2623 71.0343 54.2623C70.6218 54.2623 70.2843 54.0373 70.2843 53.7623C70.2843 53.4873 70.6218 53.2623 71.0343 53.2623C71.4468 53.2623 71.7843 53.4873 71.7843 53.7623ZM76.2843 53.7623C76.2843 54.0373 75.9468 54.2623 75.5343 54.2623C75.1218 54.2623 74.7843 54.0373 74.7843 53.7623C74.7843 53.4873 75.1218 53.2623 75.5343 53.2623C75.9468 53.2623 76.2843 53.4873 76.2843 53.7623Z" fill="white"/>
</svg>
