<svg width="106" height="180" viewBox="0 0 106 180" fill="none" xmlns="http://www.w3.org/2000/svg">
<path fill-rule="evenodd" clip-rule="evenodd" d="M-27.9609 0.703077C-28.6659 1.55258 -28.2909 2.50008 -27.2499 2.50008C-26.1674 2.50008 -25.8079 1.47808 -26.6089 0.677077C-27.2449 0.0410774 -27.4139 0.0440775 -27.9609 0.703077ZM-6.19644 0.791077C-6.69544 2.09208 -6.54894 2.50008 -5.58344 2.50008C-4.28344 2.50008 -3.95794 2.01308 -4.53494 0.934577C-5.14644 -0.207923 -5.79194 -0.263923 -6.19644 0.791077ZM15.8441 0.323077C15.0736 1.09308 15.5201 2.50008 16.5351 2.50008C17.3126 2.50008 17.5301 2.23058 17.4101 1.41408C17.2441 0.286577 16.4401 -0.273423 15.8441 0.323077ZM37.4961 1.00758C37.0721 1.80008 37.1216 2.07808 37.7286 2.31108C38.1531 2.47408 38.8426 2.47558 39.2616 2.31508C39.8956 2.07158 39.9171 1.85358 39.3911 1.01158C38.5961 -0.261423 38.1756 -0.262423 37.4961 1.00758ZM59.3336 0.333577C58.6011 1.06608 59.0226 2.50008 59.9706 2.50008C61.1486 2.50008 61.6076 1.86258 61.1981 0.795077C60.8851 -0.0214226 59.9256 -0.258923 59.3336 0.333577ZM81.3336 0.333577C80.6011 1.06608 81.0226 2.50008 81.9706 2.50008C83.2471 2.50008 83.7381 1.63958 82.9821 0.728077C82.3216 -0.0674226 81.8476 -0.180923 81.3336 0.333577ZM103.334 0.333577C102.601 1.06608 103.023 2.50008 103.971 2.50008C105.247 2.50008 105.738 1.63958 104.982 0.728077C104.322 -0.0674226 103.848 -0.180923 103.334 0.333577ZM-28.2049 20.4271C-28.7014 21.2306 -27.9284 22.5596 -27.0619 22.3926C-25.9969 22.1876 -26.0099 20.3101 -27.0784 20.1041C-27.5339 20.0166 -28.0409 20.1621 -28.2049 20.4271ZM-6.16644 20.3336C-6.34994 20.5166 -6.49994 21.0791 -6.49994 21.5836C-6.49994 22.6301 -4.71394 22.8741 -4.36544 21.8751C-3.88594 20.5006 -5.20494 19.3716 -6.16644 20.3336ZM15.5001 21.2501C15.5001 22.1666 15.7666 22.5001 16.5001 22.5001C17.2336 22.5001 17.5001 22.1666 17.5001 21.2501C17.5001 20.3336 17.2336 20.0001 16.5001 20.0001C15.7666 20.0001 15.5001 20.3336 15.5001 21.2501ZM37.3771 20.6251C36.7851 22.2356 38.3356 23.1536 39.4271 21.8381C39.8281 21.3551 39.8176 21.0176 39.3881 20.5881C38.6206 19.8206 37.6666 19.8381 37.3771 20.6251ZM59.3336 20.3336C58.6121 21.0551 59.0211 22.5001 59.9466 22.5001C60.9301 22.5001 61.7116 21.2471 61.2221 20.4551C60.8936 19.9231 59.8131 19.8536 59.3336 20.3336ZM81.3336 20.3336C80.6121 21.0551 81.0211 22.5001 81.9466 22.5001C82.9301 22.5001 83.7116 21.2471 83.2221 20.4551C82.8936 19.9231 81.8131 19.8536 81.3336 20.3336ZM103.334 20.3336C103.15 20.5166 103 21.0791 103 21.5836C103 22.7081 104.145 22.7801 105.032 21.7121C105.574 21.0586 105.563 20.8461 104.968 20.4696C104.103 19.9221 103.772 19.8946 103.334 20.3336ZM-28.1979 40.2951C-28.5734 41.2736 -28.1694 42.0001 -27.2499 42.0001C-26.8699 42.0001 -26.4324 41.7956 -26.2779 41.5451C-25.8604 40.8696 -26.5109 39.5001 -27.2499 39.5001C-27.6034 39.5001 -28.0304 39.8581 -28.1979 40.2951ZM-6.16644 39.8336C-6.91244 40.5796 -6.47544 42.0001 -5.49994 42.0001C-4.76644 42.0001 -4.49994 41.6666 -4.49994 40.7501C-4.49994 39.5736 -5.40744 39.0746 -6.16644 39.8336ZM15.5001 40.7501C15.5001 41.6666 15.7666 42.0001 16.5001 42.0001C17.2336 42.0001 17.5001 41.6666 17.5001 40.7501C17.5001 39.8336 17.2336 39.5001 16.5001 39.5001C15.7666 39.5001 15.5001 39.8336 15.5001 40.7501ZM37.3591 40.1461C37.2126 40.5281 37.2741 41.1346 37.4961 41.4931C38.0566 42.4006 39.6121 41.7001 39.4061 40.6326C39.1986 39.5531 37.7216 39.2021 37.3591 40.1461ZM59.1901 40.2261C58.8381 41.1431 59.3501 42.0001 60.2501 42.0001C61.1696 42.0001 61.5736 41.2736 61.1981 40.2951C60.8166 39.3006 59.5616 39.2576 59.1901 40.2261ZM81.3336 39.8336C80.6011 40.5661 81.0226 42.0001 81.9706 42.0001C83.1486 42.0001 83.6076 41.3626 83.1981 40.2951C82.8851 39.4786 81.9256 39.2411 81.3336 39.8336ZM103.334 39.8336C103.15 40.0166 103 40.5791 103 41.0836C103 42.0721 103.818 42.2581 104.968 41.5306C105.563 41.1541 105.574 40.9416 105.032 40.2881C104.325 39.4361 103.856 39.3106 103.334 39.8336ZM-28.2219 59.9551C-28.6394 60.6306 -27.9889 62.0001 -27.2499 62.0001C-26.5109 62.0001 -25.8604 60.6306 -26.2779 59.9551C-26.4324 59.7046 -26.8699 59.5001 -27.2499 59.5001C-27.6299 59.5001 -28.0674 59.7046 -28.2219 59.9551ZM-6.49994 60.4811C-6.49994 61.0586 -6.15294 61.6646 -5.72844 61.8276C-4.80394 62.1826 -4.64744 62.0536 -4.42244 60.7501C-4.29794 60.0276 -4.56194 59.7056 -5.37494 59.5901C-6.23544 59.4681 -6.49994 59.6776 -6.49994 60.4811ZM15.5001 60.7501C15.5001 61.6666 15.7666 62.0001 16.5001 62.0001C17.2336 62.0001 17.5001 61.6666 17.5001 60.7501C17.5001 59.8336 17.2336 59.5001 16.5001 59.5001C15.7666 59.5001 15.5001 59.8336 15.5001 60.7501ZM37.3876 59.7791C36.8931 60.2736 37.5951 62.0001 38.2906 62.0001C38.6616 62.0001 39.1936 61.5726 39.4736 61.0501C39.8631 60.3221 39.7991 60.0301 39.2001 59.8001C38.2266 59.4266 37.7461 59.4211 37.3876 59.7791ZM59.0901 60.6201C59.2816 61.9611 60.7451 62.3861 61.1886 61.2296C61.6111 60.1296 61.1551 59.5001 59.9356 59.5001C59.1806 59.5001 58.9701 59.7786 59.0901 60.6201ZM81.0901 60.6201C81.2816 61.9611 82.7451 62.3861 83.1886 61.2296C83.6111 60.1296 83.1551 59.5001 81.9356 59.5001C81.1806 59.5001 80.9701 59.7786 81.0901 60.6201ZM103 60.4706C103 61.8171 103.946 62.2686 104.857 61.3571C105.769 60.4461 105.317 59.5001 103.971 59.5001C103.343 59.5001 103 59.8431 103 60.4706ZM-28.2034 79.8091C-28.3844 80.2811 -28.3154 80.8846 -28.0499 81.1501C-27.3274 81.8726 -25.9014 81.1306 -26.0939 80.1326C-26.3189 78.9621 -27.7919 78.7366 -28.2034 79.8091ZM-6.49994 79.9706C-6.49994 81.2311 -5.64244 81.7411 -4.75794 81.0066C-3.84744 80.2511 -4.34344 79.0001 -5.55344 79.0001C-6.15694 79.0001 -6.49994 79.3516 -6.49994 79.9706ZM15.5901 80.1201C15.8276 81.7821 17.5001 81.9281 17.5001 80.2866C17.5001 79.3191 17.2436 79.0001 16.4651 79.0001C15.6796 79.0001 15.4691 79.2696 15.5901 80.1201ZM37.3331 79.7136C36.9061 80.8276 38.3216 81.7706 39.2561 80.9951C39.8316 80.5176 39.8766 80.2036 39.4451 79.6836C38.7081 78.7956 37.6801 78.8101 37.3331 79.7136ZM59.1901 79.7261C58.8381 80.6431 59.3501 81.5001 60.2501 81.5001C61.1696 81.5001 61.5736 80.7736 61.1981 79.7951C60.8166 78.8006 59.5616 78.7576 59.1901 79.7261ZM81.0001 80.0156C81.0001 81.1596 82.3136 81.8866 83.0501 81.1501C83.7681 80.4321 83.0331 79.0001 81.9466 79.0001C81.3286 79.0001 81.0001 79.3526 81.0001 80.0156ZM103.09 80.0861C103.275 81.3406 103.944 81.6771 104.968 81.0301C105.563 80.6541 105.574 80.4416 105.032 79.7881C104.059 78.6161 102.9 78.7941 103.09 80.0861ZM-28.2049 98.9271C-28.7014 99.7306 -27.9284 101.06 -27.0619 100.893C-25.9969 100.688 -26.0099 98.8101 -27.0784 98.6041C-27.5339 98.5166 -28.0409 98.6621 -28.2049 98.9271ZM-6.30994 99.2261C-6.65844 100.134 -6.15244 101 -5.27394 101C-4.50894 101 -4.04494 100.043 -4.36544 99.1251C-4.66394 98.2686 -5.96844 98.3366 -6.30994 99.2261ZM15.5001 99.7501C15.5001 100.667 15.7666 101 16.5001 101C17.2336 101 17.5001 100.667 17.5001 99.7501C17.5001 98.8336 17.2336 98.5001 16.5001 98.5001C15.7666 98.5001 15.5001 98.8336 15.5001 99.7501ZM37.3771 99.1251C36.7851 100.736 38.3356 101.654 39.4271 100.338C39.8281 99.8551 39.8176 99.5176 39.3881 99.0881C38.6206 98.3206 37.6666 98.3381 37.3771 99.1251ZM59.1901 99.2261C58.8416 100.134 59.3476 101 60.2261 101C60.9841 101 61.6461 99.6411 61.2221 98.9551C60.7851 98.2476 59.4996 98.4196 59.1901 99.2261ZM81.3336 98.8336C80.6121 99.5551 81.0211 101 81.9466 101C82.9301 101 83.7116 99.7471 83.2221 98.9551C82.8936 98.4231 81.8131 98.3536 81.3336 98.8336ZM103.334 98.8336C103.15 99.0166 103 99.5791 103 100.084C103 101.208 104.145 101.28 105.032 100.212C105.574 99.5586 105.563 99.3461 104.968 98.9696C104.103 98.4221 103.772 98.3946 103.334 98.8336ZM-28.1979 118.795C-28.5734 119.774 -28.1694 120.5 -27.2499 120.5C-26.8699 120.5 -26.4324 120.296 -26.2779 120.045C-25.8604 119.37 -26.5109 118 -27.2499 118C-27.6034 118 -28.0304 118.358 -28.1979 118.795ZM-6.16644 118.334C-6.87394 119.041 -6.48094 120.5 -5.58344 120.5C-4.35394 120.5 -4.05944 120.131 -4.36244 118.971C-4.61394 118.01 -5.52244 117.689 -6.16644 118.334ZM15.5001 119.25C15.5001 120.167 15.7666 120.5 16.5001 120.5C17.2336 120.5 17.5001 120.167 17.5001 119.25C17.5001 118.334 17.2336 118 16.5001 118C15.7666 118 15.5001 118.334 15.5001 119.25ZM37.3556 119C37.0396 120.206 37.6596 120.676 39.0041 120.249C39.8121 119.993 39.9021 119.751 39.4821 118.967C38.8101 117.711 37.6876 117.729 37.3556 119ZM59.3336 118.334C58.6011 119.066 59.0226 120.5 59.9706 120.5C61.1486 120.5 61.6076 119.863 61.1981 118.795C60.8851 117.979 59.9256 117.741 59.3336 118.334ZM81.3336 118.334C80.6011 119.066 81.0226 120.5 81.9706 120.5C83.1486 120.5 83.6076 119.863 83.1981 118.795C82.8851 117.979 81.9256 117.741 81.3336 118.334ZM103.334 118.334C103.15 118.517 103 119.079 103 119.584C103 120.572 103.818 120.758 104.968 120.031C105.563 119.654 105.574 119.442 105.032 118.788C104.325 117.936 103.856 117.811 103.334 118.334ZM-28.2219 138.455C-28.6394 139.131 -27.9889 140.5 -27.2499 140.5C-26.5109 140.5 -25.8604 139.131 -26.2779 138.455C-26.4324 138.205 -26.8699 138 -27.2499 138C-27.6299 138 -28.0674 138.205 -28.2219 138.455ZM-6.30994 138.726C-6.66594 139.654 -6.14644 140.5 -5.22044 140.5C-4.78544 140.5 -4.49994 140.005 -4.49994 139.25C-4.49994 137.876 -5.83544 137.49 -6.30994 138.726ZM15.5001 139.25C15.5001 140.167 15.7666 140.5 16.5001 140.5C17.2336 140.5 17.5001 140.167 17.5001 139.25C17.5001 138.334 17.2336 138 16.5001 138C15.7666 138 15.5001 138.334 15.5001 139.25ZM37.4051 138.262C37.2421 138.425 37.2261 139.006 37.3691 139.553C37.7021 140.827 39.2501 140.578 39.2501 139.25C39.2501 138.304 38.0211 137.646 37.4051 138.262ZM59.1901 138.726C58.8416 139.634 59.3476 140.5 60.2261 140.5C60.9841 140.5 61.6461 139.141 61.2221 138.455C60.7851 137.748 59.4996 137.92 59.1901 138.726ZM81.0901 139.12C81.2816 140.461 82.7451 140.886 83.1886 139.73C83.6111 138.63 83.1551 138 81.9356 138C81.1806 138 80.9701 138.279 81.0901 139.12ZM103 138.971C103 140.353 103.955 140.76 104.923 139.791C105.651 139.064 105.66 138.907 105 138.49C103.801 137.731 103 137.924 103 138.971ZM-28.2034 158.309C-28.3844 158.781 -28.3154 159.385 -28.0499 159.65C-27.3274 160.373 -25.9014 159.631 -26.0939 158.633C-26.3189 157.462 -27.7919 157.237 -28.2034 158.309ZM-6.49994 158.516C-6.49994 159.725 -5.06994 160.422 -4.49594 159.493C-3.90794 158.543 -4.46144 157.5 -5.55344 157.5C-6.17144 157.5 -6.49994 157.853 -6.49994 158.516ZM15.5001 158.75C15.5001 159.667 15.7666 160 16.5001 160C17.2336 160 17.5001 159.667 17.5001 158.75C17.5001 157.834 17.2336 157.5 16.5001 157.5C15.7666 157.5 15.5001 157.834 15.5001 158.75ZM37.3771 158.125C36.7851 159.736 38.3356 160.654 39.4271 159.338C39.8281 158.855 39.8176 158.518 39.3881 158.088C38.6206 157.321 37.6666 157.338 37.3771 158.125ZM59.0851 158.585C59.1951 159.362 59.5836 159.75 60.2501 159.75C61.7391 159.75 61.5906 157.798 60.0851 157.585C59.1156 157.448 58.9476 157.616 59.0851 158.585ZM81.0001 158.516C81.0001 159.66 82.3136 160.387 83.0501 159.65C83.7681 158.932 83.0331 157.5 81.9466 157.5C81.3286 157.5 81.0001 157.853 81.0001 158.516ZM103.09 158.586C103.271 159.811 103.942 160.18 104.892 159.577C105.799 159.003 105.089 157.5 103.912 157.5C103.189 157.5 102.973 157.786 103.09 158.586ZM-28.2794 178.048C-28.4659 178.35 -28.2909 178.923 -27.8909 179.323C-27.2549 179.959 -27.0859 179.956 -26.5389 179.297C-26.1949 178.883 -26.0589 178.309 -26.2364 178.022C-26.6589 177.338 -27.8504 177.354 -28.2794 178.048ZM-6.49994 178.471C-6.49994 179.861 -5.46244 180.309 -4.68994 179.253C-3.89644 178.167 -4.21594 177.5 -5.52944 177.5C-6.15694 177.5 -6.49994 177.843 -6.49994 178.471ZM15.5901 178.625C15.6781 179.244 16.0876 179.75 16.5001 179.75C16.9126 179.75 17.3221 179.244 17.4101 178.625C17.5326 177.759 17.3231 177.5 16.5001 177.5C15.6771 177.5 15.4676 177.759 15.5901 178.625ZM37.2956 177.927C37.1506 178.161 37.3486 178.78 37.7351 179.302C38.4236 180.23 38.4536 180.229 39.1746 179.256C39.5801 178.709 39.8056 178.09 39.6761 177.881C39.3571 177.364 37.6226 177.398 37.2956 177.927ZM59.0001 178.412C59.0001 179.589 60.5026 180.299 61.0771 179.392C61.6796 178.442 61.3106 177.771 60.0861 177.59C59.2861 177.473 59.0001 177.689 59.0001 178.412ZM81.0001 178.471C81.0001 179.817 81.9461 180.269 82.8571 179.357C83.7686 178.446 83.3171 177.5 81.9706 177.5C81.3431 177.5 81.0001 177.843 81.0001 178.471ZM103 178.471C103 179.817 103.946 180.269 104.857 179.357C105.769 178.446 105.317 177.5 103.971 177.5C103.343 177.5 103 177.843 103 178.471Z" fill="white"/>
</svg>
