<svg width="108" height="180" viewBox="0 0 108 180" fill="none" xmlns="http://www.w3.org/2000/svg">
<path fill-rule="evenodd" clip-rule="evenodd" d="M0.802061 0.795077C0.426561 1.77358 0.830561 2.50008 1.75006 2.50008C2.66956 2.50008 3.07356 1.77358 2.69806 0.795077C2.30506 -0.229423 1.19506 -0.229423 0.802061 0.795077ZM22.8336 0.333577C22.1261 1.04058 22.5191 2.50008 23.4166 2.50008C24.7166 2.50008 25.0421 2.01308 24.4651 0.934577C23.9451 -0.0369226 23.4036 -0.236423 22.8336 0.333577ZM44.8441 0.323077C44.0736 1.09308 44.5201 2.50008 45.5351 2.50008C46.3126 2.50008 46.5301 2.23058 46.4101 1.41408C46.2441 0.286577 45.4401 -0.273423 44.8441 0.323077ZM66.4961 1.00758C66.0721 1.80008 66.1216 2.07808 66.7286 2.31108C67.1531 2.47408 67.8471 2.47408 68.2716 2.31108C68.8786 2.07808 68.9281 1.80008 68.5041 1.00758C67.8196 -0.270923 67.1806 -0.270923 66.4961 1.00758ZM88.3336 0.333577C87.6011 1.06608 88.0226 2.50008 88.9706 2.50008C90.1486 2.50008 90.6076 1.86258 90.1981 0.795077C89.8851 -0.0214226 88.9256 -0.258923 88.3336 0.333577ZM110.334 0.333577C109.601 1.06608 110.023 2.50008 110.971 2.50008C112.247 2.50008 112.738 1.63958 111.982 0.728077C111.322 -0.0674226 110.848 -0.180923 110.334 0.333577ZM132.035 0.934577C131.462 2.00608 131.783 2.50008 133.054 2.50008C134.256 2.50008 134.719 1.61608 133.982 0.728077C133.174 -0.245923 132.637 -0.188923 132.035 0.934577ZM0.795061 20.4271C0.298561 21.2306 1.07156 22.5596 1.93806 22.3926C3.00306 22.1876 2.99006 20.3101 1.92156 20.1041C1.46606 20.0166 0.959061 20.1621 0.795061 20.4271ZM22.8336 20.3336C22.6501 20.5166 22.5001 21.0791 22.5001 21.5836C22.5001 22.6301 24.2861 22.8741 24.6346 21.8751C25.1141 20.5006 23.7951 19.3716 22.8336 20.3336ZM44.5001 21.2501C44.5001 22.1666 44.7666 22.5001 45.5001 22.5001C46.2336 22.5001 46.5001 22.1666 46.5001 21.2501C46.5001 20.3336 46.2336 20.0001 45.5001 20.0001C44.7666 20.0001 44.5001 20.3336 44.5001 21.2501ZM66.3771 20.6251C65.7851 22.2356 67.3356 23.1536 68.4271 21.8381C68.8281 21.3551 68.8176 21.0176 68.3881 20.5881C67.6206 19.8206 66.6666 19.8381 66.3771 20.6251ZM88.3336 20.3336C87.6121 21.0551 88.0211 22.5001 88.9466 22.5001C89.9301 22.5001 90.7116 21.2471 90.2221 20.4551C89.8936 19.9231 88.8131 19.8536 88.3336 20.3336ZM110.334 20.3336C109.612 21.0551 110.021 22.5001 110.947 22.5001C111.93 22.5001 112.712 21.2471 112.222 20.4551C111.894 19.9231 110.813 19.8536 110.334 20.3336ZM132.139 20.5611C131.378 21.3221 131.901 22.5001 133 22.5001C134.109 22.5001 134.764 20.9756 133.892 20.4226C133.037 19.8801 132.802 19.8986 132.139 20.5611ZM0.802061 40.2951C0.426561 41.2736 0.830561 42.0001 1.75006 42.0001C2.13006 42.0001 2.56756 41.7956 2.72206 41.5451C3.13956 40.8696 2.48906 39.5001 1.75006 39.5001C1.39656 39.5001 0.969561 39.8581 0.802061 40.2951ZM22.8336 39.8336C22.1011 40.5661 22.5226 42.0001 23.4706 42.0001C24.6486 42.0001 25.1076 41.3626 24.6981 40.2951C24.3851 39.4786 23.4256 39.2411 22.8336 39.8336ZM44.5001 40.7501C44.5001 41.6666 44.7666 42.0001 45.5001 42.0001C46.2336 42.0001 46.5001 41.6666 46.5001 40.7501C46.5001 39.8336 46.2336 39.5001 45.5001 39.5001C44.7666 39.5001 44.5001 39.8336 44.5001 40.7501ZM66.3021 40.2951C65.7251 41.7981 66.9451 42.4941 68.4681 41.5306C69.0631 41.1541 69.0736 40.9416 68.5316 40.2881C67.6926 39.2771 66.6916 39.2801 66.3021 40.2951ZM88.1901 40.2261C87.8381 41.1431 88.3501 42.0001 89.2501 42.0001C90.1696 42.0001 90.5736 41.2736 90.1981 40.2951C89.8166 39.3006 88.5616 39.2576 88.1901 40.2261ZM110.334 39.8336C109.601 40.5661 110.023 42.0001 110.971 42.0001C112.149 42.0001 112.608 41.3626 112.198 40.2951C111.885 39.4786 110.926 39.2411 110.334 39.8336ZM132.334 39.8336C132.15 40.0166 132 40.5791 132 41.0836C132 42.0721 132.818 42.2581 133.968 41.5306C134.563 41.1541 134.574 40.9416 134.032 40.2881C133.325 39.4361 132.856 39.3106 132.334 39.8336ZM0.77806 59.9551C0.36056 60.6306 1.01106 62.0001 1.75006 62.0001C2.48906 62.0001 3.13956 60.6306 2.72206 59.9551C2.56756 59.7046 2.13006 59.5001 1.75006 59.5001C1.37006 59.5001 0.93256 59.7046 0.77806 59.9551ZM22.5901 60.6201C22.7816 61.9611 24.2451 62.3861 24.6886 61.2296C25.1111 60.1296 24.6551 59.5001 23.4356 59.5001C22.6806 59.5001 22.4701 59.7786 22.5901 60.6201ZM44.5001 60.7501C44.5001 61.6666 44.7666 62.0001 45.5001 62.0001C46.2336 62.0001 46.5001 61.6666 46.5001 60.7501C46.5001 59.8336 46.2336 59.5001 45.5001 59.5001C44.7666 59.5001 44.5001 59.8336 44.5001 60.7501ZM66.2781 59.9551C65.8511 60.6461 66.5186 62.0001 67.2861 62.0001C67.6596 62.0001 68.1936 61.5726 68.4736 61.0501C68.8631 60.3221 68.7991 60.0301 68.2001 59.8001C67.1146 59.3836 66.6056 59.4246 66.2781 59.9551ZM88.0901 60.6201C88.2816 61.9611 89.7451 62.3861 90.1886 61.2296C90.6111 60.1296 90.1551 59.5001 88.9356 59.5001C88.1806 59.5001 87.9701 59.7786 88.0901 60.6201ZM110.09 60.6201C110.282 61.9611 111.745 62.3861 112.189 61.2296C112.611 60.1296 112.155 59.5001 110.936 59.5001C110.181 59.5001 109.97 59.7786 110.09 60.6201ZM131.796 59.9266C131.651 60.1611 131.849 60.7796 132.236 61.3016C132.89 62.1846 132.997 62.1926 133.779 61.4231C134.241 60.9681 134.466 60.3496 134.28 60.0481C133.879 59.3996 132.173 59.3161 131.796 59.9266ZM0.796561 79.8091C0.615561 80.2811 0.68456 80.8846 0.95006 81.1501C1.67256 81.8726 3.09856 81.1306 2.90606 80.1326C2.68106 78.9621 1.20806 78.7366 0.796561 79.8091ZM22.5001 80.0156C22.5001 81.2246 23.9301 81.9221 24.5041 80.9931C25.0921 80.0426 24.5386 79.0001 23.4466 79.0001C22.8286 79.0001 22.5001 79.3526 22.5001 80.0156ZM44.5001 80.2501C44.5001 81.1666 44.7666 81.5001 45.5001 81.5001C46.2336 81.5001 46.5001 81.1666 46.5001 80.2501C46.5001 79.3336 46.2336 79.0001 45.5001 79.0001C44.7666 79.0001 44.5001 79.3336 44.5001 80.2501ZM66.3331 79.7136C65.9061 80.8276 67.3216 81.7706 68.2561 80.9951C68.8316 80.5176 68.8766 80.2036 68.4451 79.6836C67.7081 78.7956 66.6801 78.8101 66.3331 79.7136ZM88.0851 80.0851C88.1951 80.8616 88.5836 81.2501 89.2501 81.2501C90.7391 81.2501 90.5906 79.2981 89.0851 79.0851C88.1156 78.9476 87.9476 79.1156 88.0851 80.0851ZM110 80.0156C110 81.1596 111.314 81.8866 112.05 81.1501C112.768 80.4321 112.033 79.0001 110.947 79.0001C110.329 79.0001 110 79.3526 110 80.0156ZM131.833 79.7136C131.474 80.6511 132.654 81.6016 133.687 81.2051C134.655 80.8336 134.711 80.4111 133.9 79.6001C133.092 78.7921 132.168 78.8431 131.833 79.7136ZM0.795061 98.9271C0.298561 99.7306 1.07156 101.06 1.93806 100.893C3.00306 100.688 2.99006 98.8101 1.92156 98.6041C1.46606 98.5166 0.959061 98.6621 0.795061 98.9271ZM22.6901 99.2261C22.3416 100.134 22.8476 101 23.7261 101C24.4911 101 24.9551 100.043 24.6346 99.1251C24.3361 98.2686 23.0316 98.3366 22.6901 99.2261ZM44.5001 99.7501C44.5001 100.667 44.7666 101 45.5001 101C46.2336 101 46.5001 100.667 46.5001 99.7501C46.5001 98.8336 46.2336 98.5001 45.5001 98.5001C44.7666 98.5001 44.5001 98.8336 44.5001 99.7501ZM66.3771 99.1251C65.7851 100.736 67.3356 101.654 68.4271 100.338C68.8281 99.8551 68.8176 99.5176 68.3881 99.0881C67.6206 98.3206 66.6666 98.3381 66.3771 99.1251ZM88.3506 98.8161C88.1581 99.0091 88.0001 99.5951 88.0001 100.118C88.0001 100.819 88.2966 101.028 89.1251 100.91C89.8606 100.806 90.2501 100.406 90.2501 99.7571C90.2501 98.7651 89.0141 98.1531 88.3506 98.8161ZM110.334 98.8336C109.612 99.5551 110.021 101 110.947 101C111.93 101 112.712 99.7471 112.222 98.9551C111.894 98.4231 110.813 98.3536 110.334 98.8336ZM132.334 98.8336C132.15 99.0166 132 99.5791 132 100.084C132 101.208 133.145 101.28 134.032 100.212C134.574 99.5586 134.563 99.3461 133.968 98.9696C133.103 98.4221 132.772 98.3946 132.334 98.8336ZM0.802061 118.795C0.426561 119.774 0.830561 120.5 1.75006 120.5C2.13006 120.5 2.56756 120.296 2.72206 120.045C3.13956 119.37 2.48906 118 1.75006 118C1.39656 118 0.969561 118.358 0.802061 118.795ZM22.8336 118.334C22.1261 119.041 22.5191 120.5 23.4166 120.5C24.6461 120.5 24.9406 120.131 24.6376 118.971C24.3861 118.01 23.4776 117.689 22.8336 118.334ZM44.5001 119.25C44.5001 120.167 44.7666 120.5 45.5001 120.5C46.2336 120.5 46.5001 120.167 46.5001 119.25C46.5001 118.334 46.2336 118 45.5001 118C44.7666 118 44.5001 118.334 44.5001 119.25ZM66.2871 118.834C65.8526 119.966 66.6716 120.672 67.9496 120.266C68.8091 119.993 68.9056 119.758 68.4821 118.967C67.8466 117.78 66.7181 117.711 66.2871 118.834ZM88.3336 118.334C87.6011 119.066 88.0226 120.5 88.9706 120.5C90.1486 120.5 90.6076 119.863 90.1981 118.795C89.8851 117.979 88.9256 117.741 88.3336 118.334ZM110.334 118.334C109.601 119.066 110.023 120.5 110.971 120.5C112.149 120.5 112.608 119.863 112.198 118.795C111.885 117.979 110.926 117.741 110.334 118.334ZM132.035 118.935C131.462 120.006 131.783 120.5 133.054 120.5C134.256 120.5 134.719 119.616 133.982 118.728C133.174 117.754 132.637 117.811 132.035 118.935ZM0.77806 138.455C0.36056 139.131 1.01106 140.5 1.75006 140.5C2.48906 140.5 3.13956 139.131 2.72206 138.455C2.56756 138.205 2.13006 138 1.75006 138C1.37006 138 0.93256 138.205 0.77806 138.455ZM22.6901 138.726C22.3416 139.634 22.8476 140.5 23.7261 140.5C24.4841 140.5 25.1461 139.141 24.7221 138.455C24.2851 137.748 22.9996 137.92 22.6901 138.726ZM44.5001 139.25C44.5001 140.167 44.7666 140.5 45.5001 140.5C46.2336 140.5 46.5001 140.167 46.5001 139.25C46.5001 138.334 46.2336 138 45.5001 138C44.7666 138 44.5001 138.334 44.5001 139.25ZM66.2781 138.455C65.8626 139.128 66.5096 140.5 67.2426 140.5C67.5916 140.5 68.1721 140.146 68.5316 139.712C69.0736 139.059 69.0631 138.846 68.4681 138.47C67.5436 137.885 66.6341 137.879 66.2781 138.455ZM88.0901 139.12C88.2816 140.461 89.7451 140.886 90.1886 139.73C90.6111 138.63 90.1551 138 88.9356 138C88.1806 138 87.9701 138.279 88.0901 139.12ZM110.09 139.12C110.282 140.461 111.745 140.886 112.189 139.73C112.611 138.63 112.155 138 110.936 138C110.181 138 109.97 138.279 110.09 139.12ZM132 138.971C132 140.353 132.955 140.76 133.923 139.791C134.651 139.064 134.66 138.907 134 138.49C132.801 137.731 132 137.924 132 138.971ZM0.796561 158.309C0.615561 158.781 0.68456 159.385 0.95006 159.65C1.67256 160.373 3.09856 159.631 2.90606 158.633C2.68106 157.462 1.20806 157.237 0.796561 158.309ZM22.5001 158.516C22.5001 159.725 23.9301 160.422 24.5041 159.493C25.0921 158.543 24.5386 157.5 23.4466 157.5C22.8286 157.5 22.5001 157.853 22.5001 158.516ZM44.5001 158.75C44.5001 159.667 44.7666 160 45.5001 160C46.2336 160 46.5001 159.667 46.5001 158.75C46.5001 157.834 46.2336 157.5 45.5001 157.5C44.7666 157.5 44.5001 157.834 44.5001 158.75ZM66.3771 158.125C65.7851 159.736 67.3356 160.654 68.4271 159.338C68.8281 158.855 68.8176 158.518 68.3881 158.088C67.6206 157.321 66.6666 157.338 66.3771 158.125ZM88.0851 158.585C88.1951 159.362 88.5836 159.75 89.2501 159.75C90.7391 159.75 90.5906 157.798 89.0851 157.585C88.1156 157.448 87.9476 157.616 88.0851 158.585ZM110.085 158.585C110.298 160.091 112.25 160.239 112.25 158.75C112.25 158.084 111.862 157.695 111.085 157.585C110.116 157.448 109.948 157.616 110.085 158.585ZM132.09 158.586C132.271 159.811 132.942 160.18 133.892 159.577C134.799 159.003 134.089 157.5 132.912 157.5C132.189 157.5 131.973 157.786 132.09 158.586ZM0.737561 178.021C0.542061 178.337 0.75406 178.968 1.20906 179.423C1.93656 180.151 2.09306 180.16 2.51006 179.5C2.77056 179.088 2.91256 178.525 2.82556 178.25C2.59206 177.513 1.14906 177.354 0.737561 178.021ZM22.5001 178.471C22.5001 179.861 23.5376 180.309 24.3101 179.253C25.1036 178.167 24.7841 177.5 23.4706 177.5C22.8431 177.5 22.5001 177.843 22.5001 178.471ZM44.5901 178.625C44.6781 179.244 45.0876 179.75 45.5001 179.75C45.9126 179.75 46.3221 179.244 46.4101 178.625C46.5326 177.759 46.3231 177.5 45.5001 177.5C44.6771 177.5 44.4676 177.759 44.5901 178.625ZM66.2956 177.927C66.1506 178.161 66.3486 178.78 66.7351 179.302C67.4236 180.23 67.4536 180.229 68.1746 179.256C68.5801 178.709 68.8056 178.09 68.6761 177.881C68.3571 177.364 66.6226 177.398 66.2956 177.927ZM88.0901 178.62C88.2816 179.961 89.7451 180.386 90.1886 179.23C90.6111 178.13 90.1551 177.5 88.9356 177.5C88.1806 177.5 87.9701 177.779 88.0901 178.62ZM110 178.471C110 179.817 110.946 180.269 111.857 179.357C112.769 178.446 112.317 177.5 110.971 177.5C110.343 177.5 110 177.843 110 178.471ZM131.796 177.927C131.651 178.161 131.849 178.78 132.236 179.302C132.89 180.185 132.997 180.193 133.779 179.423C134.241 178.968 134.466 178.35 134.28 178.048C133.879 177.4 132.173 177.316 131.796 177.927Z" fill="white"/>
</svg>
