<svg width="216" height="45" viewBox="0 0 216 45" fill="none" xmlns="http://www.w3.org/2000/svg">
<g clip-path="url(#clip0)">
<path d="M215.526 8.54687C214.273 10.4116 212.736 12.0012 210.914 13.3157C210.932 13.6682 210.941 14.0666 210.941 14.511C210.941 16.98 210.581 19.452 209.862 21.927C209.142 24.402 208.043 26.771 206.564 29.034C205.085 31.2971 203.323 33.3019 201.279 35.0486C199.235 36.7952 196.777 38.1879 193.907 39.2267C191.037 40.2654 187.96 40.7847 184.678 40.7847C179.556 40.7847 174.838 39.4013 170.526 36.6343C171.292 36.7196 172.026 36.7622 172.728 36.7622C177.008 36.7622 180.83 35.4435 184.195 32.8062C182.2 32.7696 180.413 32.1551 178.834 30.9627C177.256 29.7704 176.169 28.2468 175.575 26.392C176.162 26.5039 176.742 26.5598 177.314 26.5598C178.137 26.5598 178.947 26.4524 179.744 26.2376C177.615 25.8109 175.848 24.7499 174.445 23.0545C173.041 21.3592 172.339 19.4025 172.339 17.1843V17.07C173.646 17.7939 175.04 18.179 176.522 18.2253C175.26 17.384 174.26 16.2869 173.521 14.934C172.782 13.5812 172.413 12.1172 172.413 10.542C172.413 8.88065 172.829 7.33366 173.661 5.90098C175.977 8.74383 178.783 11.0159 182.079 12.7173C185.375 14.4186 188.911 15.3635 192.687 15.5519C192.526 14.8804 192.446 14.1797 192.445 13.4497C192.445 10.9009 193.347 8.72461 195.15 6.9208C196.953 5.11699 199.129 4.21509 201.677 4.21509C204.344 4.21509 206.591 5.18675 208.417 7.13009C210.503 6.71663 212.457 5.9688 214.278 4.88658C213.576 7.09514 212.225 8.79889 210.223 9.99784C212.063 9.77911 213.83 9.29545 215.526 8.54687H215.526Z" fill="white"/>
</g>
<path d="M152.96 15.5719C152.941 14.1518 152.675 12.7458 152.174 11.4169C151.74 10.2959 151.076 9.27785 150.226 8.42779C149.376 7.57772 148.358 6.91433 147.237 6.47998C145.925 5.98752 144.539 5.72125 143.138 5.69248C141.335 5.61186 140.763 5.58936 136.184 5.58936C131.605 5.58936 131.018 5.58936 129.228 5.69248C127.828 5.72146 126.442 5.98773 125.131 6.47998C124.01 6.91402 122.992 7.57731 122.142 8.42742C121.291 9.27752 120.628 10.2957 120.194 11.4169C119.701 12.7277 119.435 14.1133 119.408 15.5137C119.328 17.3194 119.303 17.8912 119.303 22.47C119.303 27.0487 119.303 27.6337 119.408 29.4262C119.437 30.8287 119.701 32.2125 120.194 33.5269C120.629 34.6477 121.293 35.6654 122.143 36.5152C122.993 37.3649 124.012 38.0279 125.133 38.4619C126.441 38.9741 127.826 39.2594 129.23 39.3056C131.035 39.3862 131.607 39.4106 136.186 39.4106C140.765 39.4106 141.352 39.4106 143.142 39.3056C144.543 39.278 145.929 39.0124 147.241 38.52C148.362 38.0851 149.379 37.4216 150.229 36.5716C151.079 35.7216 151.743 34.7038 152.178 33.5831C152.671 32.2706 152.935 30.8869 152.963 29.4825C153.044 27.6787 153.068 27.1069 153.068 22.5262C153.065 17.9475 153.065 17.3662 152.96 15.5719ZM136.173 31.1287C131.384 31.1287 127.505 27.2494 127.505 22.4606C127.505 17.6719 131.384 13.7925 136.173 13.7925C138.472 13.7925 140.677 14.7057 142.302 16.3313C143.928 17.9569 144.841 20.1617 144.841 22.4606C144.841 24.7595 143.928 26.9643 142.302 28.5899C140.677 30.2155 138.472 31.1287 136.173 31.1287ZM145.186 15.4931C144.067 15.4931 143.165 14.5894 143.165 13.4719C143.165 13.2065 143.217 12.9438 143.319 12.6987C143.42 12.4536 143.569 12.2309 143.756 12.0433C143.944 11.8557 144.167 11.7069 144.412 11.6053C144.657 11.5038 144.92 11.4515 145.185 11.4515C145.45 11.4515 145.713 11.5038 145.958 11.6053C146.203 11.7069 146.426 11.8557 146.614 12.0433C146.801 12.2309 146.95 12.4536 147.052 12.6987C147.153 12.9438 147.205 13.2065 147.205 13.4719C147.205 14.5894 146.302 15.4931 145.186 15.4931Z" fill="white"/>
<path d="M136.173 28.0913C139.283 28.0913 141.803 25.5704 141.803 22.4607C141.803 19.351 139.283 16.8301 136.173 16.8301C133.063 16.8301 130.542 19.351 130.542 22.4607C130.542 25.5704 133.063 28.0913 136.173 28.0913Z" fill="white"/>
<path d="M94.3468 5.625H64.3374C63.8425 5.62868 63.3689 5.82691 63.019 6.17687C62.669 6.52683 62.4708 7.00041 62.4671 7.49531V37.5047C62.4708 37.9996 62.669 38.4732 63.019 38.8231C63.3689 39.1731 63.8425 39.3713 64.3374 39.375H80.4952V26.325H76.1077V21.2203H80.4952V17.4656C80.4952 13.1063 83.153 10.7297 87.0624 10.7297C88.3702 10.7297 89.678 10.7297 90.9859 10.9266V15.4688H88.2999C86.1765 15.4688 85.7687 16.4813 85.7687 17.9578V21.2063H90.8312L90.1702 26.3109H85.7687V39.375H94.3468C94.8417 39.3713 95.3153 39.1731 95.6652 38.8231C96.0152 38.4732 96.2134 37.9996 96.2171 37.5047V7.49531C96.2134 7.00041 96.0152 6.52683 95.6652 6.17687C95.3153 5.82691 94.8417 5.62868 94.3468 5.625Z" fill="white"/>
<path d="M37.8001 12.8247C32.4001 4.49972 21.3751 2.02473 12.8251 7.19973C4.50005 12.3747 1.80005 23.6247 7.20005 31.9497L7.65005 32.6247L5.85005 39.3747L12.6001 37.5747L13.2751 38.0247C16.2001 39.5997 19.3501 40.4997 22.5001 40.4997C25.8751 40.4997 29.2501 39.5997 32.1751 37.7997C40.5001 32.3997 42.9751 21.3747 37.8001 12.8247ZM33.0751 30.1497C32.1751 31.4997 31.0501 32.3997 29.4751 32.6247C28.5751 32.6247 27.4501 33.0747 22.9501 31.2747C19.1251 29.4747 15.9751 26.5497 13.7251 23.1747C12.3751 21.5997 11.7001 19.5747 11.4751 17.5497C11.4751 15.7497 12.1501 14.1747 13.2751 13.0497C13.7251 12.5997 14.1751 12.3747 14.6251 12.3747H15.7501C16.2001 12.3747 16.6501 12.3747 16.8751 13.2747C17.3251 14.3997 18.4501 17.0997 18.4501 17.3247C18.6751 17.5497 18.6751 17.9997 18.4501 18.2247C18.6751 18.6747 18.4501 19.1247 18.2251 19.3497C18.0001 19.5747 17.7751 20.0247 17.5501 20.2497C17.1001 20.4747 16.8751 20.9247 17.1001 21.3747C18.0001 22.7247 19.1251 24.0747 20.2501 25.1997C21.6001 26.3247 22.9501 27.2247 24.5251 27.8997C24.9751 28.1247 25.4251 28.1247 25.6501 27.6747C25.8751 27.2247 27.0001 26.0997 27.4501 25.6497C27.9001 25.1997 28.1251 25.1997 28.5751 25.4247L32.1751 27.2247C32.6251 27.4497 33.0751 27.6747 33.3001 27.8997C33.5251 28.5747 33.5251 29.4747 33.0751 30.1497Z" fill="white"/>
<defs>
<clipPath id="clip0">
<rect width="45" height="45" fill="white" transform="translate(170.526)"/>
</clipPath>
</defs>
</svg>
